<?xml version="1.0" encoding="utf-8" standalone="no"?>
<!DOCTYPE svg PUBLIC "-//W3C//DTD SVG 1.1//EN"
  "http://www.w3.org/Graphics/SVG/1.1/DTD/svg11.dtd">
<!-- Created with matplotlib (https://matplotlib.org/) -->
<svg height="345.6pt" version="1.1" viewBox="0 0 460.8 345.6" width="460.8pt" xmlns="http://www.w3.org/2000/svg" xmlns:xlink="http://www.w3.org/1999/xlink">
 <defs>
  <style type="text/css">
*{stroke-linecap:butt;stroke-linejoin:round;}
  </style>
 </defs>
 <g id="figure_1">
  <g id="patch_1">
   <path d="M 0 345.6 
L 460.8 345.6 
L 460.8 0 
L 0 0 
z
" style="fill:#ffffff;"/>
  </g>
  <g id="axes_1">
   <g id="patch_2">
    <path d="M 57.6 307.584 
L 414.72 307.584 
L 414.72 41.472 
L 57.6 41.472 
z
" style="fill:#ffffff;"/>
   </g>
   <g id="PathCollection_1">
    <defs>
     <path d="M 0 3 
C 0.795609 3 1.55874 2.683901 2.12132 2.12132 
C 2.683901 1.55874 3 0.795609 3 0 
C 3 -0.795609 2.683901 -1.55874 2.12132 -2.12132 
C 1.55874 -2.683901 0.795609 -3 0 -3 
C -0.795609 -3 -1.55874 -2.683901 -2.12132 -2.12132 
C -2.683901 -1.55874 -3 -0.795609 -3 0 
C -3 0.795609 -2.683901 1.55874 -2.12132 2.12132 
C -1.55874 2.683901 -0.795609 3 0 3 
z
" id="m1fe82460cd" style="stroke:#1f77b4;"/>
    </defs>
    <g clip-path="url(#p04ec548402)">
     <use style="fill:#1f77b4;stroke:#1f77b4;" x="73.922909" xlink:href="#m1fe82460cd" y="265.803532"/>
     <use style="fill:#1f77b4;stroke:#1f77b4;" x="74.013091" xlink:href="#m1fe82460cd" y="226.169146"/>
     <use style="fill:#1f77b4;stroke:#1f77b4;" x="74.103273" xlink:href="#m1fe82460cd" y="181.427126"/>
     <use style="fill:#1f77b4;stroke:#1f77b4;" x="74.193455" xlink:href="#m1fe82460cd" y="139.446492"/>
     <use style="fill:#1f77b4;stroke:#1f77b4;" x="74.283636" xlink:href="#m1fe82460cd" y="98.567684"/>
     <use style="fill:#1f77b4;stroke:#1f77b4;" x="74.373818" xlink:href="#m1fe82460cd" y="55.414173"/>
    </g>
   </g>
   <g id="matplotlib.axis_1">
    <g id="text_1">
     <!-- c / (mg / l) -->
     <defs>
      <path d="M 48.78125 52.59375 
L 48.78125 44.1875 
Q 44.96875 46.296875 41.140625 47.34375 
Q 37.3125 48.390625 33.40625 48.390625 
Q 24.65625 48.390625 19.8125 42.84375 
Q 14.984375 37.3125 14.984375 27.296875 
Q 14.984375 17.28125 19.8125 11.734375 
Q 24.65625 6.203125 33.40625 6.203125 
Q 37.3125 6.203125 41.140625 7.25 
Q 44.96875 8.296875 48.78125 10.40625 
L 48.78125 2.09375 
Q 45.015625 0.34375 40.984375 -0.53125 
Q 36.96875 -1.421875 32.421875 -1.421875 
Q 20.0625 -1.421875 12.78125 6.34375 
Q 5.515625 14.109375 5.515625 27.296875 
Q 5.515625 40.671875 12.859375 48.328125 
Q 20.21875 56 33.015625 56 
Q 37.15625 56 41.109375 55.140625 
Q 45.0625 54.296875 48.78125 52.59375 
z
" id="DejaVuSans-99"/>
      <path id="DejaVuSans-32"/>
      <path d="M 25.390625 72.90625 
L 33.6875 72.90625 
L 8.296875 -9.28125 
L 0 -9.28125 
z
" id="DejaVuSans-47"/>
      <path d="M 31 75.875 
Q 24.46875 64.65625 21.28125 53.65625 
Q 18.109375 42.671875 18.109375 31.390625 
Q 18.109375 20.125 21.3125 9.0625 
Q 24.515625 -2 31 -13.1875 
L 23.1875 -13.1875 
Q 15.875 -1.703125 12.234375 9.375 
Q 8.59375 20.453125 8.59375 31.390625 
Q 8.59375 42.28125 12.203125 53.3125 
Q 15.828125 64.359375 23.1875 75.875 
z
" id="DejaVuSans-40"/>
      <path d="M 52 44.1875 
Q 55.375 50.25 60.0625 53.125 
Q 64.75 56 71.09375 56 
Q 79.640625 56 84.28125 50.015625 
Q 88.921875 44.046875 88.921875 33.015625 
L 88.921875 0 
L 79.890625 0 
L 79.890625 32.71875 
Q 79.890625 40.578125 77.09375 44.375 
Q 74.3125 48.1875 68.609375 48.1875 
Q 61.625 48.1875 57.5625 43.546875 
Q 53.515625 38.921875 53.515625 30.90625 
L 53.515625 0 
L 44.484375 0 
L 44.484375 32.71875 
Q 44.484375 40.625 41.703125 44.40625 
Q 38.921875 48.1875 33.109375 48.1875 
Q 26.21875 48.1875 22.15625 43.53125 
Q 18.109375 38.875 18.109375 30.90625 
L 18.109375 0 
L 9.078125 0 
L 9.078125 54.6875 
L 18.109375 54.6875 
L 18.109375 46.1875 
Q 21.1875 51.21875 25.484375 53.609375 
Q 29.78125 56 35.6875 56 
Q 41.65625 56 45.828125 52.96875 
Q 50 49.953125 52 44.1875 
z
" id="DejaVuSans-109"/>
      <path d="M 45.40625 27.984375 
Q 45.40625 37.75 41.375 43.109375 
Q 37.359375 48.484375 30.078125 48.484375 
Q 22.859375 48.484375 18.828125 43.109375 
Q 14.796875 37.75 14.796875 27.984375 
Q 14.796875 18.265625 18.828125 12.890625 
Q 22.859375 7.515625 30.078125 7.515625 
Q 37.359375 7.515625 41.375 12.890625 
Q 45.40625 18.265625 45.40625 27.984375 
z
M 54.390625 6.78125 
Q 54.390625 -7.171875 48.1875 -13.984375 
Q 42 -20.796875 29.203125 -20.796875 
Q 24.46875 -20.796875 20.265625 -20.09375 
Q 16.0625 -19.390625 12.109375 -17.921875 
L 12.109375 -9.1875 
Q 16.0625 -11.328125 19.921875 -12.34375 
Q 23.78125 -13.375 27.78125 -13.375 
Q 36.625 -13.375 41.015625 -8.765625 
Q 45.40625 -4.15625 45.40625 5.171875 
L 45.40625 9.625 
Q 42.625 4.78125 38.28125 2.390625 
Q 33.9375 0 27.875 0 
Q 17.828125 0 11.671875 7.65625 
Q 5.515625 15.328125 5.515625 27.984375 
Q 5.515625 40.671875 11.671875 48.328125 
Q 17.828125 56 27.875 56 
Q 33.9375 56 38.28125 53.609375 
Q 42.625 51.21875 45.40625 46.390625 
L 45.40625 54.6875 
L 54.390625 54.6875 
z
" id="DejaVuSans-103"/>
      <path d="M 9.421875 75.984375 
L 18.40625 75.984375 
L 18.40625 0 
L 9.421875 0 
z
" id="DejaVuSans-108"/>
      <path d="M 8.015625 75.875 
L 15.828125 75.875 
Q 23.140625 64.359375 26.78125 53.3125 
Q 30.421875 42.28125 30.421875 31.390625 
Q 30.421875 20.453125 26.78125 9.375 
Q 23.140625 -1.703125 15.828125 -13.1875 
L 8.015625 -13.1875 
Q 14.5 -2 17.703125 9.0625 
Q 20.90625 20.125 20.90625 31.390625 
Q 20.90625 42.671875 17.703125 53.65625 
Q 14.5 64.65625 8.015625 75.875 
z
" id="DejaVuSans-41"/>
     </defs>
     <g transform="translate(210.350625 319.182437)scale(0.1 -0.1)">
      <use xlink:href="#DejaVuSans-99"/>
      <use x="54.980469" xlink:href="#DejaVuSans-32"/>
      <use x="86.767578" xlink:href="#DejaVuSans-47"/>
      <use x="120.458984" xlink:href="#DejaVuSans-32"/>
      <use x="152.246094" xlink:href="#DejaVuSans-40"/>
      <use x="191.259766" xlink:href="#DejaVuSans-109"/>
      <use x="288.671875" xlink:href="#DejaVuSans-103"/>
      <use x="352.148438" xlink:href="#DejaVuSans-32"/>
      <use x="383.935547" xlink:href="#DejaVuSans-47"/>
      <use x="417.626953" xlink:href="#DejaVuSans-32"/>
      <use x="449.414062" xlink:href="#DejaVuSans-108"/>
      <use x="477.197266" xlink:href="#DejaVuSans-41"/>
     </g>
    </g>
   </g>
   <g id="matplotlib.axis_2">
    <g id="ytick_1">
     <g id="line2d_1">
      <defs>
       <path d="M 0 0 
L -3.5 0 
" id="mae55d08543" style="stroke:#000000;stroke-width:0.8;"/>
      </defs>
      <g>
       <use style="stroke:#000000;stroke-width:0.8;" x="57.6" xlink:href="#mae55d08543" y="305.587457"/>
      </g>
     </g>
     <g id="text_2">
      <!-- 0 -->
      <defs>
       <path d="M 31.78125 66.40625 
Q 24.171875 66.40625 20.328125 58.90625 
Q 16.5 51.421875 16.5 36.375 
Q 16.5 21.390625 20.328125 13.890625 
Q 24.171875 6.390625 31.78125 6.390625 
Q 39.453125 6.390625 43.28125 13.890625 
Q 47.125 21.390625 47.125 36.375 
Q 47.125 51.421875 43.28125 58.90625 
Q 39.453125 66.40625 31.78125 66.40625 
z
M 31.78125 74.21875 
Q 44.046875 74.21875 50.515625 64.515625 
Q 56.984375 54.828125 56.984375 36.375 
Q 56.984375 17.96875 50.515625 8.265625 
Q 44.046875 -1.421875 31.78125 -1.421875 
Q 19.53125 -1.421875 13.0625 8.265625 
Q 6.59375 17.96875 6.59375 36.375 
Q 6.59375 54.828125 13.0625 64.515625 
Q 19.53125 74.21875 31.78125 74.21875 
z
" id="DejaVuSans-48"/>
      </defs>
      <g transform="translate(44.2375 309.386676)scale(0.1 -0.1)">
       <use xlink:href="#DejaVuSans-48"/>
      </g>
     </g>
    </g>
    <g id="ytick_2">
     <g id="line2d_2">
      <g>
       <use style="stroke:#000000;stroke-width:0.8;" x="57.6" xlink:href="#mae55d08543" y="268.38872"/>
      </g>
     </g>
     <g id="text_3">
      <!-- 100 -->
      <defs>
       <path d="M 12.40625 8.296875 
L 28.515625 8.296875 
L 28.515625 63.921875 
L 10.984375 60.40625 
L 10.984375 69.390625 
L 28.421875 72.90625 
L 38.28125 72.90625 
L 38.28125 8.296875 
L 54.390625 8.296875 
L 54.390625 0 
L 12.40625 0 
z
" id="DejaVuSans-49"/>
      </defs>
      <g transform="translate(31.5125 272.187939)scale(0.1 -0.1)">
       <use xlink:href="#DejaVuSans-49"/>
       <use x="63.623047" xlink:href="#DejaVuSans-48"/>
       <use x="127.246094" xlink:href="#DejaVuSans-48"/>
      </g>
     </g>
    </g>
    <g id="ytick_3">
     <g id="line2d_3">
      <g>
       <use style="stroke:#000000;stroke-width:0.8;" x="57.6" xlink:href="#mae55d08543" y="231.189984"/>
      </g>
     </g>
     <g id="text_4">
      <!-- 200 -->
      <defs>
       <path d="M 19.1875 8.296875 
L 53.609375 8.296875 
L 53.609375 0 
L 7.328125 0 
L 7.328125 8.296875 
Q 12.9375 14.109375 22.625 23.890625 
Q 32.328125 33.6875 34.8125 36.53125 
Q 39.546875 41.84375 41.421875 45.53125 
Q 43.3125 49.21875 43.3125 52.78125 
Q 43.3125 58.59375 39.234375 62.25 
Q 35.15625 65.921875 28.609375 65.921875 
Q 23.96875 65.921875 18.8125 64.3125 
Q 13.671875 62.703125 7.8125 59.421875 
L 7.8125 69.390625 
Q 13.765625 71.78125 18.9375 73 
Q 24.125 74.21875 28.421875 74.21875 
Q 39.75 74.21875 46.484375 68.546875 
Q 53.21875 62.890625 53.21875 53.421875 
Q 53.21875 48.921875 51.53125 44.890625 
Q 49.859375 40.875 45.40625 35.40625 
Q 44.1875 33.984375 37.640625 27.21875 
Q 31.109375 20.453125 19.1875 8.296875 
z
" id="DejaVuSans-50"/>
      </defs>
      <g transform="translate(31.5125 234.989202)scale(0.1 -0.1)">
       <use xlink:href="#DejaVuSans-50"/>
       <use x="63.623047" xlink:href="#DejaVuSans-48"/>
       <use x="127.246094" xlink:href="#DejaVuSans-48"/>
      </g>
     </g>
    </g>
    <g id="ytick_4">
     <g id="line2d_4">
      <g>
       <use style="stroke:#000000;stroke-width:0.8;" x="57.6" xlink:href="#mae55d08543" y="193.991247"/>
      </g>
     </g>
     <g id="text_5">
      <!-- 300 -->
      <defs>
       <path d="M 40.578125 39.3125 
Q 47.65625 37.796875 51.625 33 
Q 55.609375 28.21875 55.609375 21.1875 
Q 55.609375 10.40625 48.1875 4.484375 
Q 40.765625 -1.421875 27.09375 -1.421875 
Q 22.515625 -1.421875 17.65625 -0.515625 
Q 12.796875 0.390625 7.625 2.203125 
L 7.625 11.71875 
Q 11.71875 9.328125 16.59375 8.109375 
Q 21.484375 6.890625 26.8125 6.890625 
Q 36.078125 6.890625 40.9375 10.546875 
Q 45.796875 14.203125 45.796875 21.1875 
Q 45.796875 27.640625 41.28125 31.265625 
Q 36.765625 34.90625 28.71875 34.90625 
L 20.21875 34.90625 
L 20.21875 43.015625 
L 29.109375 43.015625 
Q 36.375 43.015625 40.234375 45.921875 
Q 44.09375 48.828125 44.09375 54.296875 
Q 44.09375 59.90625 40.109375 62.90625 
Q 36.140625 65.921875 28.71875 65.921875 
Q 24.65625 65.921875 20.015625 65.03125 
Q 15.375 64.15625 9.8125 62.3125 
L 9.8125 71.09375 
Q 15.4375 72.65625 20.34375 73.4375 
Q 25.25 74.21875 29.59375 74.21875 
Q 40.828125 74.21875 47.359375 69.109375 
Q 53.90625 64.015625 53.90625 55.328125 
Q 53.90625 49.265625 50.4375 45.09375 
Q 46.96875 40.921875 40.578125 39.3125 
z
" id="DejaVuSans-51"/>
      </defs>
      <g transform="translate(31.5125 197.790466)scale(0.1 -0.1)">
       <use xlink:href="#DejaVuSans-51"/>
       <use x="63.623047" xlink:href="#DejaVuSans-48"/>
       <use x="127.246094" xlink:href="#DejaVuSans-48"/>
      </g>
     </g>
    </g>
    <g id="ytick_5">
     <g id="line2d_5">
      <g>
       <use style="stroke:#000000;stroke-width:0.8;" x="57.6" xlink:href="#mae55d08543" y="156.79251"/>
      </g>
     </g>
     <g id="text_6">
      <!-- 400 -->
      <defs>
       <path d="M 37.796875 64.3125 
L 12.890625 25.390625 
L 37.796875 25.390625 
z
M 35.203125 72.90625 
L 47.609375 72.90625 
L 47.609375 25.390625 
L 58.015625 25.390625 
L 58.015625 17.1875 
L 47.609375 17.1875 
L 47.609375 0 
L 37.796875 0 
L 37.796875 17.1875 
L 4.890625 17.1875 
L 4.890625 26.703125 
z
" id="DejaVuSans-52"/>
      </defs>
      <g transform="translate(31.5125 160.591729)scale(0.1 -0.1)">
       <use xlink:href="#DejaVuSans-52"/>
       <use x="63.623047" xlink:href="#DejaVuSans-48"/>
       <use x="127.246094" xlink:href="#DejaVuSans-48"/>
      </g>
     </g>
    </g>
    <g id="ytick_6">
     <g id="line2d_6">
      <g>
       <use style="stroke:#000000;stroke-width:0.8;" x="57.6" xlink:href="#mae55d08543" y="119.593773"/>
      </g>
     </g>
     <g id="text_7">
      <!-- 500 -->
      <defs>
       <path d="M 10.796875 72.90625 
L 49.515625 72.90625 
L 49.515625 64.59375 
L 19.828125 64.59375 
L 19.828125 46.734375 
Q 21.96875 47.46875 24.109375 47.828125 
Q 26.265625 48.1875 28.421875 48.1875 
Q 40.625 48.1875 47.75 41.5 
Q 54.890625 34.8125 54.890625 23.390625 
Q 54.890625 11.625 47.5625 5.09375 
Q 40.234375 -1.421875 26.90625 -1.421875 
Q 22.3125 -1.421875 17.546875 -0.640625 
Q 12.796875 0.140625 7.71875 1.703125 
L 7.71875 11.625 
Q 12.109375 9.234375 16.796875 8.0625 
Q 21.484375 6.890625 26.703125 6.890625 
Q 35.15625 6.890625 40.078125 11.328125 
Q 45.015625 15.765625 45.015625 23.390625 
Q 45.015625 31 40.078125 35.4375 
Q 35.15625 39.890625 26.703125 39.890625 
Q 22.75 39.890625 18.8125 39.015625 
Q 14.890625 38.140625 10.796875 36.28125 
z
" id="DejaVuSans-53"/>
      </defs>
      <g transform="translate(31.5125 123.392992)scale(0.1 -0.1)">
       <use xlink:href="#DejaVuSans-53"/>
       <use x="63.623047" xlink:href="#DejaVuSans-48"/>
       <use x="127.246094" xlink:href="#DejaVuSans-48"/>
      </g>
     </g>
    </g>
    <g id="ytick_7">
     <g id="line2d_7">
      <g>
       <use style="stroke:#000000;stroke-width:0.8;" x="57.6" xlink:href="#mae55d08543" y="82.395037"/>
      </g>
     </g>
     <g id="text_8">
      <!-- 600 -->
      <defs>
       <path d="M 33.015625 40.375 
Q 26.375 40.375 22.484375 35.828125 
Q 18.609375 31.296875 18.609375 23.390625 
Q 18.609375 15.53125 22.484375 10.953125 
Q 26.375 6.390625 33.015625 6.390625 
Q 39.65625 6.390625 43.53125 10.953125 
Q 47.40625 15.53125 47.40625 23.390625 
Q 47.40625 31.296875 43.53125 35.828125 
Q 39.65625 40.375 33.015625 40.375 
z
M 52.59375 71.296875 
L 52.59375 62.3125 
Q 48.875 64.0625 45.09375 64.984375 
Q 41.3125 65.921875 37.59375 65.921875 
Q 27.828125 65.921875 22.671875 59.328125 
Q 17.53125 52.734375 16.796875 39.40625 
Q 19.671875 43.65625 24.015625 45.921875 
Q 28.375 48.1875 33.59375 48.1875 
Q 44.578125 48.1875 50.953125 41.515625 
Q 57.328125 34.859375 57.328125 23.390625 
Q 57.328125 12.15625 50.6875 5.359375 
Q 44.046875 -1.421875 33.015625 -1.421875 
Q 20.359375 -1.421875 13.671875 8.265625 
Q 6.984375 17.96875 6.984375 36.375 
Q 6.984375 53.65625 15.1875 63.9375 
Q 23.390625 74.21875 37.203125 74.21875 
Q 40.921875 74.21875 44.703125 73.484375 
Q 48.484375 72.75 52.59375 71.296875 
z
" id="DejaVuSans-54"/>
      </defs>
      <g transform="translate(31.5125 86.194256)scale(0.1 -0.1)">
       <use xlink:href="#DejaVuSans-54"/>
       <use x="63.623047" xlink:href="#DejaVuSans-48"/>
       <use x="127.246094" xlink:href="#DejaVuSans-48"/>
      </g>
     </g>
    </g>
    <g id="ytick_8">
     <g id="line2d_8">
      <g>
       <use style="stroke:#000000;stroke-width:0.8;" x="57.6" xlink:href="#mae55d08543" y="45.1963"/>
      </g>
     </g>
     <g id="text_9">
      <!-- 700 -->
      <defs>
       <path d="M 8.203125 72.90625 
L 55.078125 72.90625 
L 55.078125 68.703125 
L 28.609375 0 
L 18.3125 0 
L 43.21875 64.59375 
L 8.203125 64.59375 
z
" id="DejaVuSans-55"/>
      </defs>
      <g transform="translate(31.5125 48.995519)scale(0.1 -0.1)">
       <use xlink:href="#DejaVuSans-55"/>
       <use x="63.623047" xlink:href="#DejaVuSans-48"/>
       <use x="127.246094" xlink:href="#DejaVuSans-48"/>
      </g>
     </g>
    </g>
    <g id="text_10">
     <!-- I 450 n.m. / a.u. -->
     <defs>
      <path d="M 9.8125 72.90625 
L 19.671875 72.90625 
L 19.671875 0 
L 9.8125 0 
z
" id="DejaVuSans-73"/>
      <path d="M 54.890625 33.015625 
L 54.890625 0 
L 45.90625 0 
L 45.90625 32.71875 
Q 45.90625 40.484375 42.875 44.328125 
Q 39.84375 48.1875 33.796875 48.1875 
Q 26.515625 48.1875 22.3125 43.546875 
Q 18.109375 38.921875 18.109375 30.90625 
L 18.109375 0 
L 9.078125 0 
L 9.078125 54.6875 
L 18.109375 54.6875 
L 18.109375 46.1875 
Q 21.34375 51.125 25.703125 53.5625 
Q 30.078125 56 35.796875 56 
Q 45.21875 56 50.046875 50.171875 
Q 54.890625 44.34375 54.890625 33.015625 
z
" id="DejaVuSans-110"/>
      <path d="M 10.6875 12.40625 
L 21 12.40625 
L 21 0 
L 10.6875 0 
z
" id="DejaVuSans-46"/>
      <path d="M 34.28125 27.484375 
Q 23.390625 27.484375 19.1875 25 
Q 14.984375 22.515625 14.984375 16.5 
Q 14.984375 11.71875 18.140625 8.90625 
Q 21.296875 6.109375 26.703125 6.109375 
Q 34.1875 6.109375 38.703125 11.40625 
Q 43.21875 16.703125 43.21875 25.484375 
L 43.21875 27.484375 
z
M 52.203125 31.203125 
L 52.203125 0 
L 43.21875 0 
L 43.21875 8.296875 
Q 40.140625 3.328125 35.546875 0.953125 
Q 30.953125 -1.421875 24.3125 -1.421875 
Q 15.921875 -1.421875 10.953125 3.296875 
Q 6 8.015625 6 15.921875 
Q 6 25.140625 12.171875 29.828125 
Q 18.359375 34.515625 30.609375 34.515625 
L 43.21875 34.515625 
L 43.21875 35.40625 
Q 43.21875 41.609375 39.140625 45 
Q 35.0625 48.390625 27.6875 48.390625 
Q 23 48.390625 18.546875 47.265625 
Q 14.109375 46.140625 10.015625 43.890625 
L 10.015625 52.203125 
Q 14.9375 54.109375 19.578125 55.046875 
Q 24.21875 56 28.609375 56 
Q 40.484375 56 46.34375 49.84375 
Q 52.203125 43.703125 52.203125 31.203125 
z
" id="DejaVuSans-97"/>
      <path d="M 8.5 21.578125 
L 8.5 54.6875 
L 17.484375 54.6875 
L 17.484375 21.921875 
Q 17.484375 14.15625 20.5 10.265625 
Q 23.53125 6.390625 29.59375 6.390625 
Q 36.859375 6.390625 41.078125 11.03125 
Q 45.3125 15.671875 45.3125 23.6875 
L 45.3125 54.6875 
L 54.296875 54.6875 
L 54.296875 0 
L 45.3125 0 
L 45.3125 8.40625 
Q 42.046875 3.421875 37.71875 1 
Q 33.40625 -1.421875 27.6875 -1.421875 
Q 18.265625 -1.421875 13.375 4.4375 
Q 8.5 10.296875 8.5 21.578125 
z
M 31.109375 56 
z
" id="DejaVuSans-117"/>
     </defs>
     <g transform="translate(25.432812 214.2155)rotate(-90)scale(0.1 -0.1)">
      <use xlink:href="#DejaVuSans-73"/>
      <use x="29.492188" xlink:href="#DejaVuSans-32"/>
      <use x="61.279297" xlink:href="#DejaVuSans-52"/>
      <use x="124.902344" xlink:href="#DejaVuSans-53"/>
      <use x="188.525391" xlink:href="#DejaVuSans-48"/>
      <use x="252.148438" xlink:href="#DejaVuSans-32"/>
      <use x="283.935547" xlink:href="#DejaVuSans-110"/>
      <use x="347.314453" xlink:href="#DejaVuSans-46"/>
      <use x="379.101562" xlink:href="#DejaVuSans-109"/>
      <use x="476.513672" xlink:href="#DejaVuSans-46"/>
      <use x="508.300781" xlink:href="#DejaVuSans-32"/>
      <use x="540.087891" xlink:href="#DejaVuSans-47"/>
      <use x="573.779297" xlink:href="#DejaVuSans-32"/>
      <use x="605.566406" xlink:href="#DejaVuSans-97"/>
      <use x="666.845703" xlink:href="#DejaVuSans-46"/>
      <use x="698.632812" xlink:href="#DejaVuSans-117"/>
      <use x="762.011719" xlink:href="#DejaVuSans-46"/>
     </g>
    </g>
   </g>
   <g id="line2d_9">
    <path clip-path="url(#p04ec548402)" d="M 73.832727 295.488 
L 75.636364 293.55565 
L 79.243636 292.7839 
L 81.047273 291.998263 
L 82.850909 291.583001 
L 84.654545 291.400975 
L 86.458182 291.014108 
L 88.261818 290.434304 
L 90.065455 290.194124 
L 91.869091 289.12652 
L 93.672727 289.173019 
L 95.476364 288.111243 
L 97.28 287.329697 
L 99.083636 286.88604 
L 100.887273 286.947294 
L 102.690909 286.157937 
L 104.494545 285.857371 
L 109.905455 284.116594 
L 111.709091 283.448877 
L 113.512727 283.735059 
L 115.316364 283.233 
L 117.12 282.58351 
L 118.923636 282.461499 
L 120.727273 281.01794 
L 122.530909 281.317141 
L 124.334545 281.11106 
L 126.138182 280.685383 
L 127.941818 279.869738 
L 129.745455 279.204377 
L 131.549091 278.122142 
L 133.352727 277.916929 
L 135.156364 277.995914 
L 136.96 277.491003 
L 138.763636 277.156587 
L 140.567273 277.267315 
L 144.174545 276.063316 
L 145.978182 276.041493 
L 147.781818 275.073953 
L 149.585455 274.385777 
L 151.389091 274.409832 
L 153.192727 273.780057 
L 154.996364 273.409682 
L 156.8 272.503893 
L 158.603636 272.482317 
L 160.407273 272.289008 
L 164.014545 271.47386 
L 165.818182 270.777252 
L 169.425455 270.542403 
L 171.229091 269.712251 
L 173.032727 269.64331 
L 174.836364 268.774719 
L 176.64 268.817374 
L 178.443636 268.177308 
L 180.247273 268.221574 
L 182.050909 268.419967 
L 183.854545 268.493249 
L 185.658182 268.059016 
L 187.461818 267.851075 
L 189.265455 267.405682 
L 191.069091 266.815338 
L 192.872727 267.231344 
L 194.676364 266.618804 
L 196.48 267.21386 
L 198.283636 266.922098 
L 200.087273 266.390776 
L 201.890909 266.207635 
L 203.694545 267.019931 
L 207.301818 266.657491 
L 209.105455 266.44459 
L 210.909091 266.601569 
L 212.712727 266.22735 
L 216.32 266.944293 
L 218.123636 266.394248 
L 219.927273 266.523204 
L 223.534545 266.398836 
L 225.338182 266.905607 
L 227.141818 266.365605 
L 228.945455 266.827614 
L 230.749091 266.492329 
L 232.552727 266.6317 
L 234.356364 265.908557 
L 236.16 265.803532 
L 237.963636 266.620045 
L 241.570909 266.417187 
L 243.374545 266.44955 
L 246.981818 266.700394 
L 248.785455 266.479433 
L 250.589091 266.46567 
L 252.392727 266.879568 
L 254.196364 266.013457 
L 256 266.871136 
L 257.803636 266.75148 
L 259.607273 267.577292 
L 261.410909 267.108464 
L 263.214545 267.720259 
L 265.018182 267.320497 
L 266.821818 267.500167 
L 268.625455 268.232858 
L 270.429091 267.956595 
L 272.232727 268.905287 
L 274.036364 268.972989 
L 275.84 268.91843 
L 277.643636 269.005848 
L 279.447273 268.958853 
L 281.250909 270.193231 
L 283.054545 270.356161 
L 284.858182 270.146609 
L 286.661818 270.291684 
L 290.269091 271.191397 
L 292.072727 271.321717 
L 293.876364 271.621787 
L 295.68 272.28008 
L 297.483636 272.74804 
L 299.287273 273.545829 
L 301.090909 273.536282 
L 302.894545 273.292506 
L 304.698182 273.612291 
L 306.501818 274.315595 
L 308.305455 273.517682 
L 310.109091 274.458314 
L 311.912727 274.872956 
L 313.716364 274.822118 
L 315.52 275.35964 
L 317.323636 276.292584 
L 319.127273 277.065202 
L 320.930909 276.589926 
L 322.734545 276.755833 
L 324.538182 277.255411 
L 326.341818 277.448101 
L 328.145455 277.153859 
L 331.752727 278.47739 
L 333.556364 278.505785 
L 335.36 279.157011 
L 338.967273 279.695152 
L 340.770909 279.552185 
L 342.574545 280.002166 
L 349.789091 280.646324 
L 351.592727 281.291846 
L 355.2 281.964152 
L 357.003636 282.455919 
L 362.414545 282.59901 
L 366.021818 283.512983 
L 367.825455 283.593704 
L 369.629091 284.105931 
L 371.432727 284.218023 
L 373.236364 284.107915 
L 375.04 284.653868 
L 384.058182 286.073992 
L 385.861818 286.192036 
L 387.665455 287.068314 
L 389.469091 287.128328 
L 393.076364 287.990967 
L 394.88 288.043541 
L 396.683636 288.322655 
L 398.487273 288.752673 
L 398.487273 288.752673 
" style="fill:none;stroke:#1f77b4;stroke-linecap:square;stroke-width:1.5;"/>
   </g>
   <g id="line2d_10">
    <path clip-path="url(#p04ec548402)" d="M 73.832727 280.738205 
L 75.636364 281.886158 
L 81.047273 278.607338 
L 82.850909 277.852699 
L 84.654545 276.926574 
L 86.458182 275.731875 
L 90.065455 274.157625 
L 91.869091 272.796151 
L 93.672727 271.704864 
L 95.476364 270.110154 
L 97.28 270.05138 
L 99.083636 268.762444 
L 100.887273 268.003961 
L 102.690909 267.065189 
L 104.494545 265.774889 
L 106.298182 264.837977 
L 109.905455 263.185609 
L 113.512727 261.010351 
L 115.316364 259.649125 
L 117.12 259.712611 
L 120.727273 256.9759 
L 122.530909 256.351953 
L 124.334545 254.935921 
L 126.138182 254.104654 
L 127.941818 253.425777 
L 129.745455 253.121119 
L 131.549091 252.344409 
L 133.352727 250.838481 
L 135.156364 249.784888 
L 136.96 248.415479 
L 138.763636 247.658608 
L 140.567273 246.637875 
L 144.174545 245.766061 
L 145.978182 244.615132 
L 147.781818 243.742697 
L 149.585455 242.501252 
L 153.192727 241.573019 
L 156.8 239.198624 
L 158.603636 238.748395 
L 160.407273 237.94949 
L 162.210909 236.982075 
L 164.014545 235.744597 
L 165.818182 235.677019 
L 167.621818 234.516667 
L 169.425455 233.976541 
L 171.229091 233.867921 
L 173.032727 232.843095 
L 174.836364 231.974629 
L 176.64 231.643064 
L 178.443636 230.81998 
L 180.247273 230.623695 
L 182.050909 231.113354 
L 183.854545 229.652932 
L 185.658182 229.365634 
L 187.461818 229.706374 
L 189.265455 229.048824 
L 191.069091 229.39812 
L 192.872727 228.924209 
L 196.48 227.17376 
L 200.087273 227.399308 
L 201.890909 227.268369 
L 203.694545 227.522436 
L 205.498182 226.418378 
L 209.105455 226.570025 
L 210.909091 227.015417 
L 212.712727 225.400496 
L 216.32 227.038853 
L 218.123636 226.363324 
L 219.927273 225.986128 
L 221.730909 225.918179 
L 225.338182 226.544358 
L 227.141818 226.82248 
L 228.945455 226.464008 
L 230.749091 226.376343 
L 232.552727 226.678025 
L 234.356364 226.066726 
L 241.570909 226.415154 
L 243.374545 226.739775 
L 245.178182 227.916991 
L 246.981818 226.909773 
L 248.785455 227.664659 
L 250.589091 226.778338 
L 252.392727 226.256687 
L 254.196364 226.620615 
L 256 226.810452 
L 257.803636 227.696774 
L 261.410909 228.087485 
L 263.214545 228.76971 
L 265.018182 228.668901 
L 266.821818 228.718128 
L 268.625455 229.23519 
L 270.429091 230.540122 
L 272.232727 230.450473 
L 274.036364 231.349938 
L 275.84 230.985019 
L 279.447273 232.29367 
L 281.250909 233.368094 
L 283.054545 233.651424 
L 284.858182 233.546648 
L 286.661818 233.975177 
L 288.465455 234.674389 
L 290.269091 236.228305 
L 292.072727 236.377596 
L 293.876364 237.772176 
L 295.68 237.761637 
L 297.483636 238.417946 
L 301.090909 238.550622 
L 302.894545 240.411178 
L 304.698182 241.735825 
L 306.501818 242.19461 
L 308.305455 242.210481 
L 310.109091 242.570193 
L 311.912727 244.25046 
L 315.52 244.889038 
L 317.323636 245.701459 
L 319.127273 246.19397 
L 320.930909 246.907814 
L 322.734545 247.879321 
L 329.949091 250.721305 
L 331.752727 250.72304 
L 333.556364 251.487971 
L 335.36 251.716619 
L 337.163636 252.602073 
L 340.770909 252.43753 
L 342.574545 253.569612 
L 344.378182 255.190857 
L 346.181818 255.275174 
L 347.985455 255.054585 
L 349.789091 255.905196 
L 353.396364 256.178607 
L 357.003636 259.013523 
L 358.807273 259.185877 
L 360.610909 259.194433 
L 362.414545 260.324654 
L 364.218182 260.613565 
L 366.021818 260.425959 
L 367.825455 261.816572 
L 369.629091 262.049684 
L 371.432727 262.45887 
L 373.236364 263.839687 
L 375.04 263.655429 
L 376.843636 264.046636 
L 380.450909 265.546489 
L 382.254545 265.393974 
L 384.058182 266.446946 
L 385.861818 267.290242 
L 387.665455 267.362655 
L 389.469091 268.155112 
L 391.272727 269.145715 
L 396.683636 269.80004 
L 398.487273 270.393608 
L 398.487273 270.393608 
" style="fill:none;stroke:#ff7f0e;stroke-linecap:square;stroke-width:1.5;"/>
   </g>
   <g id="line2d_11">
    <path clip-path="url(#p04ec548402)" d="M 73.832727 270.938942 
L 75.636364 267.247587 
L 77.44 266.084755 
L 79.243636 264.599533 
L 81.047273 263.460384 
L 82.850909 261.256607 
L 84.654545 260.46043 
L 86.458182 259.209808 
L 90.065455 255.697503 
L 91.869091 253.514186 
L 93.672727 251.640609 
L 95.476364 250.866752 
L 97.28 249.590711 
L 99.083636 249.076128 
L 100.887273 246.743644 
L 102.690909 245.147322 
L 104.494545 243.249938 
L 106.298182 241.979229 
L 108.101818 239.977813 
L 109.905455 238.184214 
L 111.709091 237.934735 
L 113.512727 235.6578 
L 115.316364 234.120252 
L 117.12 233.215083 
L 118.923636 231.718082 
L 120.727273 229.685791 
L 124.334545 226.533198 
L 126.138182 225.306756 
L 127.941818 223.933006 
L 129.745455 222.754178 
L 131.549091 220.926852 
L 133.352727 220.198129 
L 135.156364 218.437637 
L 136.96 217.434759 
L 142.370909 212.818024 
L 144.174545 211.875656 
L 145.978182 210.205432 
L 147.781818 208.259194 
L 149.585455 207.165428 
L 151.389091 205.723605 
L 153.192727 203.459317 
L 154.996364 203.034384 
L 156.8 201.431862 
L 158.603636 200.047821 
L 160.407273 199.490336 
L 162.210909 197.652843 
L 164.014545 196.685676 
L 165.818182 195.854408 
L 167.621818 194.279413 
L 169.425455 193.494396 
L 171.229091 193.447401 
L 173.032727 190.584091 
L 174.836364 190.298032 
L 176.64 190.250666 
L 178.443636 189.205629 
L 180.247273 188.551428 
L 182.050909 187.138496 
L 183.854545 185.368704 
L 187.461818 184.374878 
L 189.265455 184.089811 
L 191.069091 184.826594 
L 192.872727 183.959864 
L 194.676364 183.653966 
L 196.48 182.865229 
L 198.283636 183.470824 
L 200.087273 183.36518 
L 201.890909 182.202595 
L 203.694545 182.552883 
L 205.498182 180.946518 
L 209.105455 181.242744 
L 210.909091 181.846851 
L 212.712727 181.482676 
L 214.516364 181.818332 
L 216.32 182.523124 
L 218.123636 182.033093 
L 219.927273 181.248572 
L 221.730909 181.36674 
L 225.338182 182.253558 
L 227.141818 182.097447 
L 228.945455 181.282051 
L 232.552727 181.396871 
L 234.356364 180.4116 
L 236.16 181.427126 
L 237.963636 181.080929 
L 239.767273 181.640275 
L 241.570909 181.578153 
L 245.178182 182.534408 
L 246.981818 181.910461 
L 248.785455 181.850819 
L 250.589091 182.745325 
L 256 183.935809 
L 257.803636 183.987267 
L 259.607273 183.914853 
L 261.410909 184.044925 
L 265.018182 185.71366 
L 266.821818 187.067322 
L 268.625455 186.836194 
L 270.429091 187.047855 
L 272.232727 188.713118 
L 274.036364 188.937675 
L 275.84 189.993499 
L 277.643636 189.6106 
L 279.447273 191.667938 
L 281.250909 192.01463 
L 283.054545 192.633245 
L 284.858182 194.280901 
L 286.661818 193.525023 
L 288.465455 195.273859 
L 290.269091 196.049577 
L 293.876364 198.194828 
L 295.68 198.955543 
L 297.483636 200.008515 
L 299.287273 200.683548 
L 301.090909 201.657535 
L 302.894545 203.345737 
L 304.698182 204.57962 
L 308.305455 206.665105 
L 310.109091 208.243819 
L 311.912727 208.634902 
L 313.716364 209.357673 
L 317.323636 212.244171 
L 319.127273 213.478673 
L 320.930909 213.51302 
L 322.734545 214.52929 
L 324.538182 215.841785 
L 326.341818 216.221212 
L 328.145455 216.899221 
L 329.949091 218.703856 
L 331.752727 219.560543 
L 333.556364 220.214868 
L 335.36 220.466332 
L 337.163636 221.693518 
L 338.967273 223.133605 
L 340.770909 224.373687 
L 342.574545 225.049836 
L 344.378182 226.274171 
L 346.181818 225.518788 
L 347.985455 228.00974 
L 349.789091 227.89058 
L 351.592727 227.355166 
L 353.396364 229.07908 
L 355.2 229.707986 
L 357.003636 231.162085 
L 358.807273 232.050143 
L 360.610909 232.225596 
L 362.414545 233.782984 
L 364.218182 234.459257 
L 366.021818 234.626155 
L 367.825455 236.182302 
L 369.629091 237.479298 
L 371.432727 237.740309 
L 375.04 239.695847 
L 376.843636 239.955494 
L 378.647273 240.962712 
L 380.450909 242.252888 
L 382.254545 242.851664 
L 384.058182 243.803827 
L 385.861818 244.415499 
L 387.665455 245.767177 
L 393.076364 247.958926 
L 394.88 249.960838 
L 396.683636 250.337414 
L 398.487273 251.354179 
L 398.487273 251.354179 
" style="fill:none;stroke:#2ca02c;stroke-linecap:square;stroke-width:1.5;"/>
   </g>
   <g id="line2d_12">
    <path clip-path="url(#p04ec548402)" d="M 73.832727 256.982224 
L 75.636364 253.509846 
L 77.44 252.096542 
L 79.243636 250.377092 
L 81.047273 248.996027 
L 82.850909 246.326026 
L 84.654545 244.190074 
L 86.458182 242.837032 
L 88.261818 240.318926 
L 90.065455 238.041619 
L 91.869091 236.512255 
L 93.672727 234.576309 
L 95.476364 232.042455 
L 99.083636 227.632173 
L 102.690909 223.879192 
L 106.298182 219.239642 
L 109.905455 216.007195 
L 111.709091 213.635156 
L 115.316364 209.44819 
L 117.12 207.785407 
L 118.923636 205.243989 
L 120.727273 203.869124 
L 122.530909 201.674522 
L 124.334545 200.038398 
L 126.138182 197.391211 
L 129.745455 193.8489 
L 131.549091 192.654821 
L 133.352727 191.047215 
L 135.156364 188.324144 
L 136.96 186.848594 
L 138.763636 185.711676 
L 140.567273 183.493763 
L 142.370909 182.256533 
L 144.174545 179.996958 
L 145.978182 178.426179 
L 154.996364 168.200247 
L 156.8 166.501008 
L 158.603636 165.312385 
L 160.407273 162.749888 
L 162.210909 161.666661 
L 164.014545 159.314337 
L 165.818182 157.334744 
L 167.621818 155.930864 
L 169.425455 154.80957 
L 171.229091 153.257142 
L 173.032727 152.072735 
L 174.836364 149.861642 
L 176.64 149.879993 
L 178.443636 150.113229 
L 180.247273 149.281713 
L 182.050909 146.321934 
L 183.854545 146.226953 
L 185.658182 145.568535 
L 187.461818 145.12401 
L 189.265455 143.789692 
L 191.069091 143.986721 
L 192.872727 142.49344 
L 194.676364 141.967078 
L 196.48 142.455497 
L 198.283636 141.811587 
L 200.087273 142.542294 
L 201.890909 141.712018 
L 205.498182 139.722382 
L 207.301818 140.056799 
L 209.105455 139.530313 
L 210.909091 140.139752 
L 212.712727 139.745445 
L 216.32 139.591442 
L 218.123636 139.545192 
L 219.927273 141.054097 
L 221.730909 140.092757 
L 223.534545 139.338739 
L 225.338182 138.867803 
L 227.141818 139.611282 
L 228.945455 139.646621 
L 230.749091 138.860487 
L 232.552727 139.323736 
L 234.356364 139.510597 
L 236.16 139.446492 
L 237.963636 138.769598 
L 239.767273 138.900042 
L 241.570909 139.59851 
L 243.374545 139.733046 
L 245.178182 140.678142 
L 246.981818 140.485204 
L 248.785455 140.918569 
L 250.589091 141.59943 
L 252.392727 140.088294 
L 254.196364 141.008218 
L 256 142.372172 
L 257.803636 143.504998 
L 259.607273 143.126191 
L 261.410909 142.6002 
L 263.214545 144.627035 
L 265.018182 144.465841 
L 268.625455 146.698757 
L 270.429091 148.761055 
L 272.232727 148.761675 
L 274.036364 149.157222 
L 275.84 150.390484 
L 277.643636 151.282014 
L 279.447273 151.202532 
L 281.250909 153.852322 
L 283.054545 155.296501 
L 284.858182 156.086974 
L 286.661818 157.599599 
L 288.465455 158.545563 
L 290.269091 159.775477 
L 292.072727 161.628966 
L 293.876364 161.522454 
L 295.68 164.277144 
L 299.287273 166.334234 
L 301.090909 168.526356 
L 302.894545 169.496995 
L 304.698182 171.65539 
L 306.501818 171.933388 
L 310.109091 175.257467 
L 311.912727 176.743929 
L 313.716364 177.690513 
L 315.52 178.491153 
L 317.323636 181.281679 
L 319.127273 182.818854 
L 320.930909 183.289914 
L 322.734545 184.812211 
L 324.538182 184.832546 
L 326.341818 187.107001 
L 328.145455 188.470954 
L 329.949091 189.232289 
L 333.556364 191.739855 
L 335.36 192.412285 
L 337.163636 194.251142 
L 338.967273 195.66023 
L 340.770909 196.873777 
L 342.574545 197.503552 
L 344.378182 198.83415 
L 346.181818 199.259952 
L 347.985455 200.264938 
L 349.789091 202.739894 
L 351.592727 202.992101 
L 353.396364 204.194116 
L 355.2 204.817071 
L 357.003636 206.472787 
L 358.807273 206.853454 
L 360.610909 208.111763 
L 362.414545 208.917116 
L 364.218182 210.088876 
L 366.021818 212.513118 
L 367.825455 212.863282 
L 369.629091 214.222276 
L 371.432727 216.052578 
L 373.236364 215.994672 
L 375.04 218.544149 
L 376.843636 218.64099 
L 378.647273 219.731037 
L 380.450909 220.675389 
L 382.254545 222.495399 
L 384.058182 223.245326 
L 385.861818 224.158803 
L 389.469091 227.463538 
L 391.272727 228.952356 
L 393.076364 229.488141 
L 394.88 230.63783 
L 396.683636 231.611321 
L 398.487273 232.727284 
L 398.487273 232.727284 
" style="fill:none;stroke:#d62728;stroke-linecap:square;stroke-width:1.5;"/>
   </g>
   <g id="line2d_13">
    <path clip-path="url(#p04ec548402)" d="M 73.832727 243.36637 
L 75.636364 241.643449 
L 77.44 239.570611 
L 79.243636 236.909414 
L 81.047273 235.001986 
L 82.850909 231.891056 
L 84.654545 229.120742 
L 86.458182 228.058098 
L 88.261818 224.660614 
L 90.065455 221.98466 
L 91.869091 219.645108 
L 93.672727 217.667375 
L 95.476364 214.594759 
L 97.28 211.86524 
L 99.083636 209.857872 
L 100.887273 206.808072 
L 102.690909 204.383334 
L 104.494545 201.155228 
L 106.298182 198.415789 
L 108.101818 197.010421 
L 109.905455 193.715976 
L 115.316364 185.846212 
L 117.12 184.047529 
L 118.923636 181.339213 
L 120.727273 179.260795 
L 122.530909 177.675261 
L 124.334545 174.924415 
L 126.138182 172.491369 
L 127.941818 171.538089 
L 129.745455 168.709002 
L 131.549091 166.259961 
L 135.156364 160.794722 
L 136.96 157.611874 
L 138.763636 155.385034 
L 140.567273 153.808056 
L 142.370909 149.964558 
L 144.174545 149.124363 
L 147.781818 144.390824 
L 149.585455 142.49468 
L 151.389091 138.350617 
L 153.192727 138.323958 
L 154.996364 136.170275 
L 158.603636 130.204961 
L 160.407273 128.298154 
L 162.210909 126.685589 
L 165.818182 122.603151 
L 167.621818 119.373557 
L 169.425455 118.803548 
L 171.229091 116.466352 
L 173.032727 114.867922 
L 174.836364 113.780603 
L 176.64 111.334662 
L 178.443636 110.39651 
L 180.247273 110.217088 
L 182.050909 108.545873 
L 183.854545 107.796566 
L 185.658182 105.828009 
L 187.461818 105.381748 
L 189.265455 103.287459 
L 191.069091 103.194587 
L 194.676364 100.192028 
L 196.48 100.646597 
L 198.283636 101.662743 
L 200.087273 101.68345 
L 201.890909 100.705371 
L 203.694545 100.674248 
L 205.498182 100.329416 
L 207.301818 99.765359 
L 209.105455 100.03691 
L 210.909091 99.675586 
L 212.712727 100.579639 
L 214.516364 98.809352 
L 216.32 99.19101 
L 218.123636 97.834372 
L 219.927273 98.418393 
L 221.730909 97.641931 
L 223.534545 98.342755 
L 225.338182 98.878417 
L 227.141818 99.84422 
L 228.945455 99.14848 
L 230.749091 99.766847 
L 232.552727 98.824603 
L 234.356364 99.068255 
L 236.16 98.567684 
L 237.963636 99.217918 
L 239.767273 100.594023 
L 241.570909 99.537827 
L 243.374545 99.710305 
L 245.178182 100.711447 
L 246.981818 100.467051 
L 248.785455 101.641291 
L 250.589091 101.22107 
L 252.392727 99.566594 
L 254.196364 101.165272 
L 256 103.082371 
L 257.803636 103.062531 
L 259.607273 103.593977 
L 261.410909 104.811616 
L 265.018182 105.575058 
L 266.821818 107.607101 
L 268.625455 107.912626 
L 270.429091 109.331138 
L 272.232727 109.580122 
L 274.036364 112.22768 
L 275.84 112.667121 
L 279.447273 115.295459 
L 281.250909 117.036485 
L 283.054545 118.379607 
L 284.858182 120.209785 
L 286.661818 121.802759 
L 288.465455 122.649774 
L 290.269091 125.320395 
L 292.072727 124.551497 
L 293.876364 127.194344 
L 297.483636 129.960689 
L 299.287273 132.783206 
L 301.090909 135.251094 
L 302.894545 136.250748 
L 304.698182 138.459485 
L 306.501818 139.552508 
L 308.305455 140.889431 
L 310.109091 142.563746 
L 311.912727 144.789718 
L 313.716364 146.465521 
L 315.52 148.337237 
L 317.323636 150.832777 
L 319.127273 151.828091 
L 322.734545 155.376974 
L 324.538182 156.671614 
L 326.341818 159.108752 
L 328.145455 159.104164 
L 329.949091 161.799956 
L 331.752727 162.792915 
L 335.36 166.595121 
L 337.163636 166.946897 
L 338.967273 168.370865 
L 340.770909 169.382299 
L 342.574545 170.593366 
L 344.378182 172.466818 
L 347.985455 174.510021 
L 349.789091 177.506379 
L 351.592727 178.330083 
L 353.396364 179.478408 
L 357.003636 181.123088 
L 358.807273 184.282997 
L 360.610909 184.805391 
L 362.414545 186.340583 
L 364.218182 188.06524 
L 366.021818 189.255104 
L 367.825455 191.036303 
L 369.629091 191.615612 
L 371.432727 194.606266 
L 373.236364 194.521577 
L 375.04 195.459729 
L 376.843636 196.7814 
L 378.647273 199.396471 
L 382.254545 201.457902 
L 384.058182 203.90595 
L 385.861818 206.060625 
L 387.665455 206.601247 
L 389.469091 208.213936 
L 391.272727 209.09319 
L 393.076364 210.284046 
L 396.683636 213.309667 
L 398.487273 213.724433 
L 398.487273 213.724433 
" style="fill:none;stroke:#9467bd;stroke-linecap:square;stroke-width:1.5;"/>
   </g>
   <g id="line2d_14">
    <path clip-path="url(#p04ec548402)" d="M 73.832727 231.77388 
L 75.636364 227.671727 
L 77.44 225.318163 
L 79.243636 222.04393 
L 86.458182 210.027126 
L 88.261818 207.851868 
L 90.065455 205.049935 
L 91.869091 200.750754 
L 93.672727 198.564956 
L 95.476364 195.019792 
L 97.28 191.166623 
L 99.083636 188.413793 
L 100.887273 184.854121 
L 102.690909 182.533912 
L 104.494545 178.778204 
L 106.298182 176.276589 
L 108.101818 173.522022 
L 109.905455 169.580196 
L 111.709091 166.331382 
L 113.512727 164.151412 
L 115.316364 159.99123 
L 118.923636 154.772867 
L 120.727273 152.14862 
L 122.530909 148.879223 
L 124.334545 145.869969 
L 126.138182 144.38388 
L 127.941818 140.727368 
L 129.745455 138.981631 
L 131.549091 133.975053 
L 133.352727 131.82199 
L 135.156364 128.822904 
L 136.96 126.413542 
L 138.763636 123.783963 
L 140.567273 121.818754 
L 144.174545 113.863432 
L 145.978182 111.693258 
L 147.781818 111.169624 
L 149.585455 106.189085 
L 151.389091 103.070963 
L 153.192727 100.386826 
L 154.996364 98.497378 
L 156.8 94.442716 
L 158.603636 92.606338 
L 160.407273 90.308448 
L 162.210909 86.952254 
L 164.014545 85.910814 
L 165.818182 82.237686 
L 167.621818 79.285967 
L 169.425455 77.172954 
L 171.229091 76.087743 
L 173.032727 74.258681 
L 174.836364 71.309689 
L 178.443636 68.582278 
L 180.247273 67.827392 
L 182.050909 66.437399 
L 183.854545 64.475661 
L 185.658182 63.171102 
L 187.461818 62.10697 
L 189.265455 61.254003 
L 191.069091 60.158376 
L 192.872727 59.310865 
L 194.676364 58.914078 
L 196.48 58.780535 
L 198.283636 56.178979 
L 200.087273 56.397956 
L 201.890909 56.333478 
L 203.694545 55.980958 
L 205.498182 57.244103 
L 207.301818 57.729175 
L 209.105455 56.365469 
L 210.909091 54.241917 
L 212.712727 54.131933 
L 214.516364 53.885181 
L 216.32 54.593941 
L 218.123636 55.896765 
L 219.927273 55.012551 
L 221.730909 53.850462 
L 223.534545 53.568 
L 225.338182 54.763691 
L 227.141818 53.883817 
L 230.749091 55.205736 
L 232.552727 54.533927 
L 234.356364 55.745242 
L 236.16 55.414173 
L 237.963636 55.507666 
L 239.767273 55.98381 
L 243.374545 54.591585 
L 245.178182 55.34238 
L 246.981818 56.433666 
L 248.785455 55.610335 
L 250.589091 55.485595 
L 252.392727 56.824501 
L 254.196364 59.096228 
L 256 57.73339 
L 257.803636 58.352502 
L 259.607273 60.106298 
L 261.410909 60.027313 
L 263.214545 61.475459 
L 266.821818 62.933278 
L 270.429091 66.257729 
L 272.232727 67.221548 
L 274.036364 70.446927 
L 275.84 69.909777 
L 277.643636 72.04672 
L 279.447273 73.760714 
L 281.250909 74.95653 
L 283.054545 77.354112 
L 284.858182 80.158401 
L 286.661818 80.1925 
L 288.465455 82.438187 
L 290.269091 84.99653 
L 292.072727 87.08152 
L 293.876364 87.458157 
L 295.68 89.277361 
L 299.287273 94.859403 
L 301.090909 97.166655 
L 302.894545 97.474475 
L 304.698182 100.890807 
L 306.501818 102.652167 
L 308.305455 103.684246 
L 310.109091 108.832923 
L 311.912727 109.130141 
L 313.716364 112.28292 
L 315.52 113.437569 
L 317.323636 114.960113 
L 319.127273 118.669013 
L 320.930909 119.723039 
L 322.734545 121.453338 
L 324.538182 124.616719 
L 326.341818 126.386449 
L 328.145455 128.345892 
L 329.949091 129.868437 
L 331.752727 131.030711 
L 333.556364 131.871031 
L 335.36 135.305404 
L 337.163636 137.329015 
L 338.967273 138.013286 
L 340.770909 139.99914 
L 342.574545 140.323141 
L 344.378182 143.688139 
L 346.181818 145.509017 
L 347.985455 147.596982 
L 349.789091 149.074516 
L 351.592727 149.923205 
L 353.396364 151.578177 
L 355.2 153.696087 
L 357.003636 155.358871 
L 358.807273 154.930899 
L 360.610909 158.899819 
L 362.414545 160.520754 
L 364.218182 162.561662 
L 366.021818 163.362923 
L 367.825455 166.061691 
L 369.629091 168.287292 
L 371.432727 169.416645 
L 375.04 172.045294 
L 376.843636 174.59471 
L 378.647273 176.061456 
L 380.450909 176.468224 
L 382.254545 179.561299 
L 384.058182 180.842609 
L 387.665455 184.631301 
L 389.469091 185.782044 
L 391.272727 188.171319 
L 393.076364 189.404829 
L 396.683636 193.12619 
L 398.487273 195.981565 
L 398.487273 195.981565 
" style="fill:none;stroke:#8c564b;stroke-linecap:square;stroke-width:1.5;"/>
   </g>
   <g id="patch_3">
    <path d="M 57.6 307.584 
L 57.6 41.472 
" style="fill:none;stroke:#000000;stroke-linecap:square;stroke-linejoin:miter;stroke-width:0.8;"/>
   </g>
   <g id="patch_4">
    <path d="M 414.72 307.584 
L 414.72 41.472 
" style="fill:none;stroke:#000000;stroke-linecap:square;stroke-linejoin:miter;stroke-width:0.8;"/>
   </g>
   <g id="patch_5">
    <path d="M 57.6 307.584 
L 414.72 307.584 
" style="fill:none;stroke:#000000;stroke-linecap:square;stroke-linejoin:miter;stroke-width:0.8;"/>
   </g>
   <g id="patch_6">
    <path d="M 57.6 41.472 
L 414.72 41.472 
" style="fill:none;stroke:#000000;stroke-linecap:square;stroke-linejoin:miter;stroke-width:0.8;"/>
   </g>
   <g id="legend_1">
    <g id="patch_7">
     <path d="M 233.127813 152.218875 
L 407.72 152.218875 
Q 409.72 152.218875 409.72 150.218875 
L 409.72 48.472 
Q 409.72 46.472 407.72 46.472 
L 233.127813 46.472 
Q 231.127813 46.472 231.127813 48.472 
L 231.127813 150.218875 
Q 231.127813 152.218875 233.127813 152.218875 
z
" style="fill:#ffffff;opacity:0.8;stroke:#cccccc;stroke-linejoin:miter;"/>
    </g>
    <g id="line2d_15">
     <path d="M 235.127813 54.570438 
L 255.127813 54.570438 
" style="fill:none;stroke:#1f77b4;stroke-linecap:square;stroke-width:1.5;"/>
    </g>
    <g id="line2d_16"/>
    <g id="text_11">
     <!-- 0.05 -->
     <g transform="translate(263.127813 58.070438)scale(0.1 -0.1)">
      <use xlink:href="#DejaVuSans-48"/>
      <use x="63.623047" xlink:href="#DejaVuSans-46"/>
      <use x="95.410156" xlink:href="#DejaVuSans-48"/>
      <use x="159.033203" xlink:href="#DejaVuSans-53"/>
     </g>
    </g>
    <g id="line2d_17">
     <path d="M 235.127813 69.248563 
L 255.127813 69.248563 
" style="fill:none;stroke:#ff7f0e;stroke-linecap:square;stroke-width:1.5;"/>
    </g>
    <g id="line2d_18"/>
    <g id="text_12">
     <!-- 0.1 -->
     <g transform="translate(263.127813 72.748563)scale(0.1 -0.1)">
      <use xlink:href="#DejaVuSans-48"/>
      <use x="63.623047" xlink:href="#DejaVuSans-46"/>
      <use x="95.410156" xlink:href="#DejaVuSans-49"/>
     </g>
    </g>
    <g id="line2d_19">
     <path d="M 235.127813 83.926688 
L 255.127813 83.926688 
" style="fill:none;stroke:#2ca02c;stroke-linecap:square;stroke-width:1.5;"/>
    </g>
    <g id="line2d_20"/>
    <g id="text_13">
     <!-- 0.15 -->
     <g transform="translate(263.127813 87.426688)scale(0.1 -0.1)">
      <use xlink:href="#DejaVuSans-48"/>
      <use x="63.623047" xlink:href="#DejaVuSans-46"/>
      <use x="95.410156" xlink:href="#DejaVuSans-49"/>
      <use x="159.033203" xlink:href="#DejaVuSans-53"/>
     </g>
    </g>
    <g id="line2d_21">
     <path d="M 235.127813 98.604813 
L 255.127813 98.604813 
" style="fill:none;stroke:#d62728;stroke-linecap:square;stroke-width:1.5;"/>
    </g>
    <g id="line2d_22"/>
    <g id="text_14">
     <!-- 0.2 -->
     <g transform="translate(263.127813 102.104813)scale(0.1 -0.1)">
      <use xlink:href="#DejaVuSans-48"/>
      <use x="63.623047" xlink:href="#DejaVuSans-46"/>
      <use x="95.410156" xlink:href="#DejaVuSans-50"/>
     </g>
    </g>
    <g id="line2d_23">
     <path d="M 235.127813 113.282938 
L 255.127813 113.282938 
" style="fill:none;stroke:#9467bd;stroke-linecap:square;stroke-width:1.5;"/>
    </g>
    <g id="line2d_24"/>
    <g id="text_15">
     <!-- 0.25 -->
     <g transform="translate(263.127813 116.782938)scale(0.1 -0.1)">
      <use xlink:href="#DejaVuSans-48"/>
      <use x="63.623047" xlink:href="#DejaVuSans-46"/>
      <use x="95.410156" xlink:href="#DejaVuSans-50"/>
      <use x="159.033203" xlink:href="#DejaVuSans-53"/>
     </g>
    </g>
    <g id="line2d_25">
     <path d="M 235.127813 127.961063 
L 255.127813 127.961063 
" style="fill:none;stroke:#8c564b;stroke-linecap:square;stroke-width:1.5;"/>
    </g>
    <g id="line2d_26"/>
    <g id="text_16">
     <!-- 0.3 -->
     <g transform="translate(263.127813 131.461063)scale(0.1 -0.1)">
      <use xlink:href="#DejaVuSans-48"/>
      <use x="63.623047" xlink:href="#DejaVuSans-46"/>
      <use x="95.410156" xlink:href="#DejaVuSans-51"/>
     </g>
    </g>
    <g id="PathCollection_2">
     <g>
      <use style="fill:#1f77b4;stroke:#1f77b4;" x="245.127813" xlink:href="#m1fe82460cd" y="143.514188"/>
     </g>
    </g>
    <g id="text_17">
     <!-- Emission intensity at 450nm -->
     <defs>
      <path d="M 9.8125 72.90625 
L 55.90625 72.90625 
L 55.90625 64.59375 
L 19.671875 64.59375 
L 19.671875 43.015625 
L 54.390625 43.015625 
L 54.390625 34.71875 
L 19.671875 34.71875 
L 19.671875 8.296875 
L 56.78125 8.296875 
L 56.78125 0 
L 9.8125 0 
z
" id="DejaVuSans-69"/>
      <path d="M 9.421875 54.6875 
L 18.40625 54.6875 
L 18.40625 0 
L 9.421875 0 
z
M 9.421875 75.984375 
L 18.40625 75.984375 
L 18.40625 64.59375 
L 9.421875 64.59375 
z
" id="DejaVuSans-105"/>
      <path d="M 44.28125 53.078125 
L 44.28125 44.578125 
Q 40.484375 46.53125 36.375 47.5 
Q 32.28125 48.484375 27.875 48.484375 
Q 21.1875 48.484375 17.84375 46.4375 
Q 14.5 44.390625 14.5 40.28125 
Q 14.5 37.15625 16.890625 35.375 
Q 19.28125 33.59375 26.515625 31.984375 
L 29.59375 31.296875 
Q 39.15625 29.25 43.1875 25.515625 
Q 47.21875 21.78125 47.21875 15.09375 
Q 47.21875 7.46875 41.1875 3.015625 
Q 35.15625 -1.421875 24.609375 -1.421875 
Q 20.21875 -1.421875 15.453125 -0.5625 
Q 10.6875 0.296875 5.421875 2 
L 5.421875 11.28125 
Q 10.40625 8.6875 15.234375 7.390625 
Q 20.0625 6.109375 24.8125 6.109375 
Q 31.15625 6.109375 34.5625 8.28125 
Q 37.984375 10.453125 37.984375 14.40625 
Q 37.984375 18.0625 35.515625 20.015625 
Q 33.0625 21.96875 24.703125 23.78125 
L 21.578125 24.515625 
Q 13.234375 26.265625 9.515625 29.90625 
Q 5.8125 33.546875 5.8125 39.890625 
Q 5.8125 47.609375 11.28125 51.796875 
Q 16.75 56 26.8125 56 
Q 31.78125 56 36.171875 55.265625 
Q 40.578125 54.546875 44.28125 53.078125 
z
" id="DejaVuSans-115"/>
      <path d="M 30.609375 48.390625 
Q 23.390625 48.390625 19.1875 42.75 
Q 14.984375 37.109375 14.984375 27.296875 
Q 14.984375 17.484375 19.15625 11.84375 
Q 23.34375 6.203125 30.609375 6.203125 
Q 37.796875 6.203125 41.984375 11.859375 
Q 46.1875 17.53125 46.1875 27.296875 
Q 46.1875 37.015625 41.984375 42.703125 
Q 37.796875 48.390625 30.609375 48.390625 
z
M 30.609375 56 
Q 42.328125 56 49.015625 48.375 
Q 55.71875 40.765625 55.71875 27.296875 
Q 55.71875 13.875 49.015625 6.21875 
Q 42.328125 -1.421875 30.609375 -1.421875 
Q 18.84375 -1.421875 12.171875 6.21875 
Q 5.515625 13.875 5.515625 27.296875 
Q 5.515625 40.765625 12.171875 48.375 
Q 18.84375 56 30.609375 56 
z
" id="DejaVuSans-111"/>
      <path d="M 18.3125 70.21875 
L 18.3125 54.6875 
L 36.8125 54.6875 
L 36.8125 47.703125 
L 18.3125 47.703125 
L 18.3125 18.015625 
Q 18.3125 11.328125 20.140625 9.421875 
Q 21.96875 7.515625 27.59375 7.515625 
L 36.8125 7.515625 
L 36.8125 0 
L 27.59375 0 
Q 17.1875 0 13.234375 3.875 
Q 9.28125 7.765625 9.28125 18.015625 
L 9.28125 47.703125 
L 2.6875 47.703125 
L 2.6875 54.6875 
L 9.28125 54.6875 
L 9.28125 70.21875 
z
" id="DejaVuSans-116"/>
      <path d="M 56.203125 29.59375 
L 56.203125 25.203125 
L 14.890625 25.203125 
Q 15.484375 15.921875 20.484375 11.0625 
Q 25.484375 6.203125 34.421875 6.203125 
Q 39.59375 6.203125 44.453125 7.46875 
Q 49.3125 8.734375 54.109375 11.28125 
L 54.109375 2.78125 
Q 49.265625 0.734375 44.1875 -0.34375 
Q 39.109375 -1.421875 33.890625 -1.421875 
Q 20.796875 -1.421875 13.15625 6.1875 
Q 5.515625 13.8125 5.515625 26.8125 
Q 5.515625 40.234375 12.765625 48.109375 
Q 20.015625 56 32.328125 56 
Q 43.359375 56 49.78125 48.890625 
Q 56.203125 41.796875 56.203125 29.59375 
z
M 47.21875 32.234375 
Q 47.125 39.59375 43.09375 43.984375 
Q 39.0625 48.390625 32.421875 48.390625 
Q 24.90625 48.390625 20.390625 44.140625 
Q 15.875 39.890625 15.1875 32.171875 
z
" id="DejaVuSans-101"/>
      <path d="M 32.171875 -5.078125 
Q 28.375 -14.84375 24.75 -17.8125 
Q 21.140625 -20.796875 15.09375 -20.796875 
L 7.90625 -20.796875 
L 7.90625 -13.28125 
L 13.1875 -13.28125 
Q 16.890625 -13.28125 18.9375 -11.515625 
Q 21 -9.765625 23.484375 -3.21875 
L 25.09375 0.875 
L 2.984375 54.6875 
L 12.5 54.6875 
L 29.59375 11.921875 
L 46.6875 54.6875 
L 56.203125 54.6875 
z
" id="DejaVuSans-121"/>
     </defs>
     <g transform="translate(263.127813 146.139188)scale(0.1 -0.1)">
      <use xlink:href="#DejaVuSans-69"/>
      <use x="63.183594" xlink:href="#DejaVuSans-109"/>
      <use x="160.595703" xlink:href="#DejaVuSans-105"/>
      <use x="188.378906" xlink:href="#DejaVuSans-115"/>
      <use x="240.478516" xlink:href="#DejaVuSans-115"/>
      <use x="292.578125" xlink:href="#DejaVuSans-105"/>
      <use x="320.361328" xlink:href="#DejaVuSans-111"/>
      <use x="381.542969" xlink:href="#DejaVuSans-110"/>
      <use x="444.921875" xlink:href="#DejaVuSans-32"/>
      <use x="476.708984" xlink:href="#DejaVuSans-105"/>
      <use x="504.492188" xlink:href="#DejaVuSans-110"/>
      <use x="567.871094" xlink:href="#DejaVuSans-116"/>
      <use x="607.080078" xlink:href="#DejaVuSans-101"/>
      <use x="668.603516" xlink:href="#DejaVuSans-110"/>
      <use x="731.982422" xlink:href="#DejaVuSans-115"/>
      <use x="784.082031" xlink:href="#DejaVuSans-105"/>
      <use x="811.865234" xlink:href="#DejaVuSans-116"/>
      <use x="851.074219" xlink:href="#DejaVuSans-121"/>
      <use x="910.253906" xlink:href="#DejaVuSans-32"/>
      <use x="942.041016" xlink:href="#DejaVuSans-97"/>
      <use x="1003.320312" xlink:href="#DejaVuSans-116"/>
      <use x="1042.529297" xlink:href="#DejaVuSans-32"/>
      <use x="1074.316406" xlink:href="#DejaVuSans-52"/>
      <use x="1137.939453" xlink:href="#DejaVuSans-53"/>
      <use x="1201.5625" xlink:href="#DejaVuSans-48"/>
      <use x="1265.185547" xlink:href="#DejaVuSans-110"/>
      <use x="1328.564453" xlink:href="#DejaVuSans-109"/>
     </g>
    </g>
   </g>
  </g>
 </g>
 <defs>
  <clipPath id="p04ec548402">
   <rect height="266.112" width="357.12" x="57.6" y="41.472"/>
  </clipPath>
 </defs>
</svg>
