<?xml version="1.0" encoding="utf-8" standalone="no"?>
<!DOCTYPE svg PUBLIC "-//W3C//DTD SVG 1.1//EN"
  "http://www.w3.org/Graphics/SVG/1.1/DTD/svg11.dtd">
<!-- Created with matplotlib (https://matplotlib.org/) -->
<svg height="345.6pt" version="1.1" viewBox="0 0 460.8 345.6" width="460.8pt" xmlns="http://www.w3.org/2000/svg" xmlns:xlink="http://www.w3.org/1999/xlink">
 <defs>
  <style type="text/css">
*{stroke-linecap:butt;stroke-linejoin:round;}
  </style>
 </defs>
 <g id="figure_1">
  <g id="patch_1">
   <path d="M 0 345.6 
L 460.8 345.6 
L 460.8 0 
L 0 0 
z
" style="fill:#ffffff;"/>
  </g>
  <g id="axes_1">
   <g id="patch_2">
    <path d="M 57.6 307.584 
L 414.72 307.584 
L 414.72 41.472 
L 57.6 41.472 
z
" style="fill:#ffffff;"/>
   </g>
   <g id="matplotlib.axis_1">
    <g id="xtick_1">
     <g id="line2d_1">
      <path clip-path="url(#p37be737cf6)" d="M 398.071049 307.584 
L 398.071049 41.472 
" style="fill:none;stroke:#b0b0b0;stroke-linecap:square;stroke-width:0.8;"/>
     </g>
     <g id="line2d_2">
      <defs>
       <path d="M 0 0 
L 0 3.5 
" id="mf26a1c179d" style="stroke:#000000;stroke-width:0.8;"/>
      </defs>
      <g>
       <use style="stroke:#000000;stroke-width:0.8;" x="398.071049" xlink:href="#mf26a1c179d" y="307.584"/>
      </g>
     </g>
    </g>
    <g id="xtick_2">
     <g id="line2d_3">
      <path clip-path="url(#p37be737cf6)" d="M 406.395524 307.584 
L 406.395524 41.472 
" style="fill:none;stroke:#b0b0b0;stroke-linecap:square;stroke-width:0.8;"/>
     </g>
     <g id="line2d_4">
      <g>
       <use style="stroke:#000000;stroke-width:0.8;" x="406.395524" xlink:href="#mf26a1c179d" y="307.584"/>
      </g>
     </g>
    </g>
    <g id="xtick_3">
     <g id="line2d_5">
      <path clip-path="url(#p37be737cf6)" d="M 414.72 307.584 
L 414.72 41.472 
" style="fill:none;stroke:#b0b0b0;stroke-linecap:square;stroke-width:0.8;"/>
     </g>
     <g id="line2d_6">
      <g>
       <use style="stroke:#000000;stroke-width:0.8;" x="414.72" xlink:href="#mf26a1c179d" y="307.584"/>
      </g>
     </g>
    </g>
    <g id="text_1">
     <!-- $\lambda$ nm) -->
     <defs>
      <path d="M 36.71875 67.4375 
L 48.828125 0 
L 39.3125 0 
L 31.84375 40.4375 
L 5.125 0 
L -4.390625 0 
L 29.734375 52.4375 
L 28.03125 62.109375 
Q 26.953125 68.265625 21.734375 68.265625 
L 17.046875 68.265625 
L 18.5 75.984375 
L 24.21875 75.875 
Q 35.203125 75.734375 36.71875 67.4375 
z
" id="DejaVuSans-Oblique-955"/>
      <path id="DejaVuSans-32"/>
      <path d="M 54.890625 33.015625 
L 54.890625 0 
L 45.90625 0 
L 45.90625 32.71875 
Q 45.90625 40.484375 42.875 44.328125 
Q 39.84375 48.1875 33.796875 48.1875 
Q 26.515625 48.1875 22.3125 43.546875 
Q 18.109375 38.921875 18.109375 30.90625 
L 18.109375 0 
L 9.078125 0 
L 9.078125 54.6875 
L 18.109375 54.6875 
L 18.109375 46.1875 
Q 21.34375 51.125 25.703125 53.5625 
Q 30.078125 56 35.796875 56 
Q 45.21875 56 50.046875 50.171875 
Q 54.890625 44.34375 54.890625 33.015625 
z
" id="DejaVuSans-110"/>
      <path d="M 52 44.1875 
Q 55.375 50.25 60.0625 53.125 
Q 64.75 56 71.09375 56 
Q 79.640625 56 84.28125 50.015625 
Q 88.921875 44.046875 88.921875 33.015625 
L 88.921875 0 
L 79.890625 0 
L 79.890625 32.71875 
Q 79.890625 40.578125 77.09375 44.375 
Q 74.3125 48.1875 68.609375 48.1875 
Q 61.625 48.1875 57.5625 43.546875 
Q 53.515625 38.921875 53.515625 30.90625 
L 53.515625 0 
L 44.484375 0 
L 44.484375 32.71875 
Q 44.484375 40.625 41.703125 44.40625 
Q 38.921875 48.1875 33.109375 48.1875 
Q 26.21875 48.1875 22.15625 43.53125 
Q 18.109375 38.875 18.109375 30.90625 
L 18.109375 0 
L 9.078125 0 
L 9.078125 54.6875 
L 18.109375 54.6875 
L 18.109375 46.1875 
Q 21.1875 51.21875 25.484375 53.609375 
Q 29.78125 56 35.6875 56 
Q 41.65625 56 45.828125 52.96875 
Q 50 49.953125 52 44.1875 
z
" id="DejaVuSans-109"/>
      <path d="M 8.015625 75.875 
L 15.828125 75.875 
Q 23.140625 64.359375 26.78125 53.3125 
Q 30.421875 42.28125 30.421875 31.390625 
Q 30.421875 20.453125 26.78125 9.375 
Q 23.140625 -1.703125 15.828125 -13.1875 
L 8.015625 -13.1875 
Q 14.5 -2 17.703125 9.0625 
Q 20.90625 20.125 20.90625 31.390625 
Q 20.90625 42.671875 17.703125 53.65625 
Q 14.5 64.65625 8.015625 75.875 
z
" id="DejaVuSans-41"/>
     </defs>
     <g transform="translate(221.61 326.182437)scale(0.1 -0.1)">
      <use transform="translate(0 0.015625)" xlink:href="#DejaVuSans-Oblique-955"/>
      <use transform="translate(59.179688 0.015625)" xlink:href="#DejaVuSans-32"/>
      <use transform="translate(90.966797 0.015625)" xlink:href="#DejaVuSans-110"/>
      <use transform="translate(154.345703 0.015625)" xlink:href="#DejaVuSans-109"/>
      <use transform="translate(251.757812 0.015625)" xlink:href="#DejaVuSans-41"/>
     </g>
    </g>
   </g>
   <g id="matplotlib.axis_2">
    <g id="ytick_1">
     <g id="line2d_7">
      <path clip-path="url(#p37be737cf6)" d="M 57.6 305.587457 
L 414.72 305.587457 
" style="fill:none;stroke:#b0b0b0;stroke-linecap:square;stroke-width:0.8;"/>
     </g>
     <g id="line2d_8">
      <defs>
       <path d="M 0 0 
L -3.5 0 
" id="md39fd42661" style="stroke:#000000;stroke-width:0.8;"/>
      </defs>
      <g>
       <use style="stroke:#000000;stroke-width:0.8;" x="57.6" xlink:href="#md39fd42661" y="305.587457"/>
      </g>
     </g>
     <g id="text_2">
      <!-- 0 -->
      <defs>
       <path d="M 31.78125 66.40625 
Q 24.171875 66.40625 20.328125 58.90625 
Q 16.5 51.421875 16.5 36.375 
Q 16.5 21.390625 20.328125 13.890625 
Q 24.171875 6.390625 31.78125 6.390625 
Q 39.453125 6.390625 43.28125 13.890625 
Q 47.125 21.390625 47.125 36.375 
Q 47.125 51.421875 43.28125 58.90625 
Q 39.453125 66.40625 31.78125 66.40625 
z
M 31.78125 74.21875 
Q 44.046875 74.21875 50.515625 64.515625 
Q 56.984375 54.828125 56.984375 36.375 
Q 56.984375 17.96875 50.515625 8.265625 
Q 44.046875 -1.421875 31.78125 -1.421875 
Q 19.53125 -1.421875 13.0625 8.265625 
Q 6.59375 17.96875 6.59375 36.375 
Q 6.59375 54.828125 13.0625 64.515625 
Q 19.53125 74.21875 31.78125 74.21875 
z
" id="DejaVuSans-48"/>
      </defs>
      <g transform="translate(44.2375 309.386676)scale(0.1 -0.1)">
       <use xlink:href="#DejaVuSans-48"/>
      </g>
     </g>
    </g>
    <g id="ytick_2">
     <g id="line2d_9">
      <path clip-path="url(#p37be737cf6)" d="M 57.6 268.38872 
L 414.72 268.38872 
" style="fill:none;stroke:#b0b0b0;stroke-linecap:square;stroke-width:0.8;"/>
     </g>
     <g id="line2d_10">
      <g>
       <use style="stroke:#000000;stroke-width:0.8;" x="57.6" xlink:href="#md39fd42661" y="268.38872"/>
      </g>
     </g>
     <g id="text_3">
      <!-- 100 -->
      <defs>
       <path d="M 12.40625 8.296875 
L 28.515625 8.296875 
L 28.515625 63.921875 
L 10.984375 60.40625 
L 10.984375 69.390625 
L 28.421875 72.90625 
L 38.28125 72.90625 
L 38.28125 8.296875 
L 54.390625 8.296875 
L 54.390625 0 
L 12.40625 0 
z
" id="DejaVuSans-49"/>
      </defs>
      <g transform="translate(31.5125 272.187939)scale(0.1 -0.1)">
       <use xlink:href="#DejaVuSans-49"/>
       <use x="63.623047" xlink:href="#DejaVuSans-48"/>
       <use x="127.246094" xlink:href="#DejaVuSans-48"/>
      </g>
     </g>
    </g>
    <g id="ytick_3">
     <g id="line2d_11">
      <path clip-path="url(#p37be737cf6)" d="M 57.6 231.189984 
L 414.72 231.189984 
" style="fill:none;stroke:#b0b0b0;stroke-linecap:square;stroke-width:0.8;"/>
     </g>
     <g id="line2d_12">
      <g>
       <use style="stroke:#000000;stroke-width:0.8;" x="57.6" xlink:href="#md39fd42661" y="231.189984"/>
      </g>
     </g>
     <g id="text_4">
      <!-- 200 -->
      <defs>
       <path d="M 19.1875 8.296875 
L 53.609375 8.296875 
L 53.609375 0 
L 7.328125 0 
L 7.328125 8.296875 
Q 12.9375 14.109375 22.625 23.890625 
Q 32.328125 33.6875 34.8125 36.53125 
Q 39.546875 41.84375 41.421875 45.53125 
Q 43.3125 49.21875 43.3125 52.78125 
Q 43.3125 58.59375 39.234375 62.25 
Q 35.15625 65.921875 28.609375 65.921875 
Q 23.96875 65.921875 18.8125 64.3125 
Q 13.671875 62.703125 7.8125 59.421875 
L 7.8125 69.390625 
Q 13.765625 71.78125 18.9375 73 
Q 24.125 74.21875 28.421875 74.21875 
Q 39.75 74.21875 46.484375 68.546875 
Q 53.21875 62.890625 53.21875 53.421875 
Q 53.21875 48.921875 51.53125 44.890625 
Q 49.859375 40.875 45.40625 35.40625 
Q 44.1875 33.984375 37.640625 27.21875 
Q 31.109375 20.453125 19.1875 8.296875 
z
" id="DejaVuSans-50"/>
      </defs>
      <g transform="translate(31.5125 234.989202)scale(0.1 -0.1)">
       <use xlink:href="#DejaVuSans-50"/>
       <use x="63.623047" xlink:href="#DejaVuSans-48"/>
       <use x="127.246094" xlink:href="#DejaVuSans-48"/>
      </g>
     </g>
    </g>
    <g id="ytick_4">
     <g id="line2d_13">
      <path clip-path="url(#p37be737cf6)" d="M 57.6 193.991247 
L 414.72 193.991247 
" style="fill:none;stroke:#b0b0b0;stroke-linecap:square;stroke-width:0.8;"/>
     </g>
     <g id="line2d_14">
      <g>
       <use style="stroke:#000000;stroke-width:0.8;" x="57.6" xlink:href="#md39fd42661" y="193.991247"/>
      </g>
     </g>
     <g id="text_5">
      <!-- 300 -->
      <defs>
       <path d="M 40.578125 39.3125 
Q 47.65625 37.796875 51.625 33 
Q 55.609375 28.21875 55.609375 21.1875 
Q 55.609375 10.40625 48.1875 4.484375 
Q 40.765625 -1.421875 27.09375 -1.421875 
Q 22.515625 -1.421875 17.65625 -0.515625 
Q 12.796875 0.390625 7.625 2.203125 
L 7.625 11.71875 
Q 11.71875 9.328125 16.59375 8.109375 
Q 21.484375 6.890625 26.8125 6.890625 
Q 36.078125 6.890625 40.9375 10.546875 
Q 45.796875 14.203125 45.796875 21.1875 
Q 45.796875 27.640625 41.28125 31.265625 
Q 36.765625 34.90625 28.71875 34.90625 
L 20.21875 34.90625 
L 20.21875 43.015625 
L 29.109375 43.015625 
Q 36.375 43.015625 40.234375 45.921875 
Q 44.09375 48.828125 44.09375 54.296875 
Q 44.09375 59.90625 40.109375 62.90625 
Q 36.140625 65.921875 28.71875 65.921875 
Q 24.65625 65.921875 20.015625 65.03125 
Q 15.375 64.15625 9.8125 62.3125 
L 9.8125 71.09375 
Q 15.4375 72.65625 20.34375 73.4375 
Q 25.25 74.21875 29.59375 74.21875 
Q 40.828125 74.21875 47.359375 69.109375 
Q 53.90625 64.015625 53.90625 55.328125 
Q 53.90625 49.265625 50.4375 45.09375 
Q 46.96875 40.921875 40.578125 39.3125 
z
" id="DejaVuSans-51"/>
      </defs>
      <g transform="translate(31.5125 197.790466)scale(0.1 -0.1)">
       <use xlink:href="#DejaVuSans-51"/>
       <use x="63.623047" xlink:href="#DejaVuSans-48"/>
       <use x="127.246094" xlink:href="#DejaVuSans-48"/>
      </g>
     </g>
    </g>
    <g id="ytick_5">
     <g id="line2d_15">
      <path clip-path="url(#p37be737cf6)" d="M 57.6 156.79251 
L 414.72 156.79251 
" style="fill:none;stroke:#b0b0b0;stroke-linecap:square;stroke-width:0.8;"/>
     </g>
     <g id="line2d_16">
      <g>
       <use style="stroke:#000000;stroke-width:0.8;" x="57.6" xlink:href="#md39fd42661" y="156.79251"/>
      </g>
     </g>
     <g id="text_6">
      <!-- 400 -->
      <defs>
       <path d="M 37.796875 64.3125 
L 12.890625 25.390625 
L 37.796875 25.390625 
z
M 35.203125 72.90625 
L 47.609375 72.90625 
L 47.609375 25.390625 
L 58.015625 25.390625 
L 58.015625 17.1875 
L 47.609375 17.1875 
L 47.609375 0 
L 37.796875 0 
L 37.796875 17.1875 
L 4.890625 17.1875 
L 4.890625 26.703125 
z
" id="DejaVuSans-52"/>
      </defs>
      <g transform="translate(31.5125 160.591729)scale(0.1 -0.1)">
       <use xlink:href="#DejaVuSans-52"/>
       <use x="63.623047" xlink:href="#DejaVuSans-48"/>
       <use x="127.246094" xlink:href="#DejaVuSans-48"/>
      </g>
     </g>
    </g>
    <g id="ytick_6">
     <g id="line2d_17">
      <path clip-path="url(#p37be737cf6)" d="M 57.6 119.593773 
L 414.72 119.593773 
" style="fill:none;stroke:#b0b0b0;stroke-linecap:square;stroke-width:0.8;"/>
     </g>
     <g id="line2d_18">
      <g>
       <use style="stroke:#000000;stroke-width:0.8;" x="57.6" xlink:href="#md39fd42661" y="119.593773"/>
      </g>
     </g>
     <g id="text_7">
      <!-- 500 -->
      <defs>
       <path d="M 10.796875 72.90625 
L 49.515625 72.90625 
L 49.515625 64.59375 
L 19.828125 64.59375 
L 19.828125 46.734375 
Q 21.96875 47.46875 24.109375 47.828125 
Q 26.265625 48.1875 28.421875 48.1875 
Q 40.625 48.1875 47.75 41.5 
Q 54.890625 34.8125 54.890625 23.390625 
Q 54.890625 11.625 47.5625 5.09375 
Q 40.234375 -1.421875 26.90625 -1.421875 
Q 22.3125 -1.421875 17.546875 -0.640625 
Q 12.796875 0.140625 7.71875 1.703125 
L 7.71875 11.625 
Q 12.109375 9.234375 16.796875 8.0625 
Q 21.484375 6.890625 26.703125 6.890625 
Q 35.15625 6.890625 40.078125 11.328125 
Q 45.015625 15.765625 45.015625 23.390625 
Q 45.015625 31 40.078125 35.4375 
Q 35.15625 39.890625 26.703125 39.890625 
Q 22.75 39.890625 18.8125 39.015625 
Q 14.890625 38.140625 10.796875 36.28125 
z
" id="DejaVuSans-53"/>
      </defs>
      <g transform="translate(31.5125 123.392992)scale(0.1 -0.1)">
       <use xlink:href="#DejaVuSans-53"/>
       <use x="63.623047" xlink:href="#DejaVuSans-48"/>
       <use x="127.246094" xlink:href="#DejaVuSans-48"/>
      </g>
     </g>
    </g>
    <g id="ytick_7">
     <g id="line2d_19">
      <path clip-path="url(#p37be737cf6)" d="M 57.6 82.395037 
L 414.72 82.395037 
" style="fill:none;stroke:#b0b0b0;stroke-linecap:square;stroke-width:0.8;"/>
     </g>
     <g id="line2d_20">
      <g>
       <use style="stroke:#000000;stroke-width:0.8;" x="57.6" xlink:href="#md39fd42661" y="82.395037"/>
      </g>
     </g>
     <g id="text_8">
      <!-- 600 -->
      <defs>
       <path d="M 33.015625 40.375 
Q 26.375 40.375 22.484375 35.828125 
Q 18.609375 31.296875 18.609375 23.390625 
Q 18.609375 15.53125 22.484375 10.953125 
Q 26.375 6.390625 33.015625 6.390625 
Q 39.65625 6.390625 43.53125 10.953125 
Q 47.40625 15.53125 47.40625 23.390625 
Q 47.40625 31.296875 43.53125 35.828125 
Q 39.65625 40.375 33.015625 40.375 
z
M 52.59375 71.296875 
L 52.59375 62.3125 
Q 48.875 64.0625 45.09375 64.984375 
Q 41.3125 65.921875 37.59375 65.921875 
Q 27.828125 65.921875 22.671875 59.328125 
Q 17.53125 52.734375 16.796875 39.40625 
Q 19.671875 43.65625 24.015625 45.921875 
Q 28.375 48.1875 33.59375 48.1875 
Q 44.578125 48.1875 50.953125 41.515625 
Q 57.328125 34.859375 57.328125 23.390625 
Q 57.328125 12.15625 50.6875 5.359375 
Q 44.046875 -1.421875 33.015625 -1.421875 
Q 20.359375 -1.421875 13.671875 8.265625 
Q 6.984375 17.96875 6.984375 36.375 
Q 6.984375 53.65625 15.1875 63.9375 
Q 23.390625 74.21875 37.203125 74.21875 
Q 40.921875 74.21875 44.703125 73.484375 
Q 48.484375 72.75 52.59375 71.296875 
z
" id="DejaVuSans-54"/>
      </defs>
      <g transform="translate(31.5125 86.194256)scale(0.1 -0.1)">
       <use xlink:href="#DejaVuSans-54"/>
       <use x="63.623047" xlink:href="#DejaVuSans-48"/>
       <use x="127.246094" xlink:href="#DejaVuSans-48"/>
      </g>
     </g>
    </g>
    <g id="ytick_8">
     <g id="line2d_21">
      <path clip-path="url(#p37be737cf6)" d="M 57.6 45.1963 
L 414.72 45.1963 
" style="fill:none;stroke:#b0b0b0;stroke-linecap:square;stroke-width:0.8;"/>
     </g>
     <g id="line2d_22">
      <g>
       <use style="stroke:#000000;stroke-width:0.8;" x="57.6" xlink:href="#md39fd42661" y="45.1963"/>
      </g>
     </g>
     <g id="text_9">
      <!-- 700 -->
      <defs>
       <path d="M 8.203125 72.90625 
L 55.078125 72.90625 
L 55.078125 68.703125 
L 28.609375 0 
L 18.3125 0 
L 43.21875 64.59375 
L 8.203125 64.59375 
z
" id="DejaVuSans-55"/>
      </defs>
      <g transform="translate(31.5125 48.995519)scale(0.1 -0.1)">
       <use xlink:href="#DejaVuSans-55"/>
       <use x="63.623047" xlink:href="#DejaVuSans-48"/>
       <use x="127.246094" xlink:href="#DejaVuSans-48"/>
      </g>
     </g>
    </g>
    <g id="text_10">
     <!-- I / a.u. -->
     <defs>
      <path d="M 9.8125 72.90625 
L 19.671875 72.90625 
L 19.671875 0 
L 9.8125 0 
z
" id="DejaVuSans-73"/>
      <path d="M 25.390625 72.90625 
L 33.6875 72.90625 
L 8.296875 -9.28125 
L 0 -9.28125 
z
" id="DejaVuSans-47"/>
      <path d="M 34.28125 27.484375 
Q 23.390625 27.484375 19.1875 25 
Q 14.984375 22.515625 14.984375 16.5 
Q 14.984375 11.71875 18.140625 8.90625 
Q 21.296875 6.109375 26.703125 6.109375 
Q 34.1875 6.109375 38.703125 11.40625 
Q 43.21875 16.703125 43.21875 25.484375 
L 43.21875 27.484375 
z
M 52.203125 31.203125 
L 52.203125 0 
L 43.21875 0 
L 43.21875 8.296875 
Q 40.140625 3.328125 35.546875 0.953125 
Q 30.953125 -1.421875 24.3125 -1.421875 
Q 15.921875 -1.421875 10.953125 3.296875 
Q 6 8.015625 6 15.921875 
Q 6 25.140625 12.171875 29.828125 
Q 18.359375 34.515625 30.609375 34.515625 
L 43.21875 34.515625 
L 43.21875 35.40625 
Q 43.21875 41.609375 39.140625 45 
Q 35.0625 48.390625 27.6875 48.390625 
Q 23 48.390625 18.546875 47.265625 
Q 14.109375 46.140625 10.015625 43.890625 
L 10.015625 52.203125 
Q 14.9375 54.109375 19.578125 55.046875 
Q 24.21875 56 28.609375 56 
Q 40.484375 56 46.34375 49.84375 
Q 52.203125 43.703125 52.203125 31.203125 
z
" id="DejaVuSans-97"/>
      <path d="M 10.6875 12.40625 
L 21 12.40625 
L 21 0 
L 10.6875 0 
z
" id="DejaVuSans-46"/>
      <path d="M 8.5 21.578125 
L 8.5 54.6875 
L 17.484375 54.6875 
L 17.484375 21.921875 
Q 17.484375 14.15625 20.5 10.265625 
Q 23.53125 6.390625 29.59375 6.390625 
Q 36.859375 6.390625 41.078125 11.03125 
Q 45.3125 15.671875 45.3125 23.6875 
L 45.3125 54.6875 
L 54.296875 54.6875 
L 54.296875 0 
L 45.3125 0 
L 45.3125 8.40625 
Q 42.046875 3.421875 37.71875 1 
Q 33.40625 -1.421875 27.6875 -1.421875 
Q 18.265625 -1.421875 13.375 4.4375 
Q 8.5 10.296875 8.5 21.578125 
z
M 31.109375 56 
z
" id="DejaVuSans-117"/>
     </defs>
     <g transform="translate(25.432812 190.276437)rotate(-90)scale(0.1 -0.1)">
      <use xlink:href="#DejaVuSans-73"/>
      <use x="29.492188" xlink:href="#DejaVuSans-32"/>
      <use x="61.279297" xlink:href="#DejaVuSans-47"/>
      <use x="94.970703" xlink:href="#DejaVuSans-32"/>
      <use x="126.757812" xlink:href="#DejaVuSans-97"/>
      <use x="188.037109" xlink:href="#DejaVuSans-46"/>
      <use x="219.824219" xlink:href="#DejaVuSans-117"/>
      <use x="283.203125" xlink:href="#DejaVuSans-46"/>
     </g>
    </g>
   </g>
   <g id="line2d_23">
    <path clip-path="url(#p37be737cf6)" d="M 65.092028 295.488 
L 65.924476 293.55565 
L 67.589371 292.7839 
L 68.421818 291.998263 
L 69.254266 291.583001 
L 70.086713 291.400975 
L 70.919161 291.014108 
L 71.751608 290.434304 
L 72.584056 290.194124 
L 73.416503 289.12652 
L 74.248951 289.173019 
L 75.081399 288.111243 
L 75.913846 287.329697 
L 76.746294 286.88604 
L 77.578741 286.947294 
L 78.411189 286.157937 
L 79.243636 285.857371 
L 81.740979 284.116594 
L 82.573427 283.448877 
L 83.405874 283.735059 
L 84.238322 283.233 
L 85.070769 282.58351 
L 85.903217 282.461499 
L 86.735664 281.01794 
L 87.568112 281.317141 
L 88.400559 281.11106 
L 89.233007 280.685383 
L 91.73035 278.122142 
L 92.562797 277.916929 
L 93.395245 277.995914 
L 94.227692 277.491003 
L 95.06014 277.156587 
L 95.892587 277.267315 
L 97.557483 276.063316 
L 98.38993 276.041493 
L 99.222378 275.073953 
L 100.054825 274.385777 
L 100.887273 274.409832 
L 101.71972 273.780057 
L 102.552168 273.409682 
L 103.384615 272.503893 
L 104.217063 272.482317 
L 105.04951 272.289008 
L 106.714406 271.47386 
L 107.546853 270.777252 
L 109.211748 270.542403 
L 110.044196 269.712251 
L 110.876643 269.64331 
L 111.709091 268.774719 
L 112.541538 268.817374 
L 113.373986 268.177308 
L 114.206434 268.221574 
L 115.038881 268.419967 
L 115.871329 268.493249 
L 116.703776 268.059016 
L 117.536224 267.851075 
L 118.368671 267.405682 
L 119.201119 266.815338 
L 120.033566 267.231344 
L 120.866014 266.618804 
L 121.698462 267.21386 
L 122.530909 266.922098 
L 123.363357 266.390776 
L 124.195804 266.207635 
L 125.028252 267.019931 
L 126.693147 266.657491 
L 127.525594 266.44459 
L 128.358042 266.601569 
L 129.19049 266.22735 
L 130.855385 266.944293 
L 131.687832 266.394248 
L 132.52028 266.523204 
L 134.185175 266.398836 
L 135.017622 266.905607 
L 135.85007 266.365605 
L 136.682517 266.827614 
L 137.514965 266.492329 
L 138.347413 266.6317 
L 139.17986 265.908557 
L 140.012308 265.803532 
L 140.844755 266.620045 
L 142.50965 266.417187 
L 143.342098 266.44955 
L 145.006993 266.700394 
L 145.839441 266.479433 
L 146.671888 266.46567 
L 147.504336 266.879568 
L 148.336783 266.013457 
L 149.169231 266.871136 
L 150.001678 266.75148 
L 150.834126 267.577292 
L 151.666573 267.108464 
L 152.499021 267.720259 
L 153.331469 267.320497 
L 154.163916 267.500167 
L 154.996364 268.232858 
L 155.828811 267.956595 
L 156.661259 268.905287 
L 157.493706 268.972989 
L 158.326154 268.91843 
L 159.158601 269.005848 
L 159.991049 268.958853 
L 160.823497 270.193231 
L 161.655944 270.356161 
L 162.488392 270.146609 
L 163.320839 270.291684 
L 164.985734 271.191397 
L 165.818182 271.321717 
L 166.650629 271.621787 
L 167.483077 272.28008 
L 168.315524 272.74804 
L 169.147972 273.545829 
L 169.98042 273.536282 
L 170.812867 273.292506 
L 171.645315 273.612291 
L 172.477762 274.315595 
L 173.31021 273.517682 
L 174.142657 274.458314 
L 174.975105 274.872956 
L 175.807552 274.822118 
L 176.64 275.35964 
L 178.304895 277.065202 
L 179.137343 276.589926 
L 179.96979 276.755833 
L 180.802238 277.255411 
L 181.634685 277.448101 
L 182.467133 277.153859 
L 184.132028 278.47739 
L 184.964476 278.505785 
L 185.796923 279.157011 
L 187.461818 279.695152 
L 188.294266 279.552185 
L 189.126713 280.002166 
L 192.456503 280.646324 
L 193.288951 281.291846 
L 194.953846 281.964152 
L 195.786294 282.455919 
L 198.283636 282.59901 
L 199.948531 283.512983 
L 200.780979 283.593704 
L 201.613427 284.105931 
L 202.445874 284.218023 
L 203.278322 284.107915 
L 204.110769 284.653868 
L 208.273007 286.073992 
L 209.105455 286.192036 
L 209.937902 287.068314 
L 210.77035 287.128328 
L 212.435245 287.990967 
L 213.267692 288.043541 
L 214.10014 288.322655 
L 214.932587 288.752673 
L 214.932587 288.752673 
" style="fill:none;stroke:#1f77b4;stroke-linecap:square;stroke-width:1.5;"/>
   </g>
   <g id="line2d_24">
    <path clip-path="url(#p37be737cf6)" d="M 65.092028 280.738205 
L 65.924476 281.886158 
L 68.421818 278.607338 
L 69.254266 277.852699 
L 70.086713 276.926574 
L 70.919161 275.731875 
L 72.584056 274.157625 
L 73.416503 272.796151 
L 74.248951 271.704864 
L 75.081399 270.110154 
L 75.913846 270.05138 
L 76.746294 268.762444 
L 77.578741 268.003961 
L 78.411189 267.065189 
L 79.243636 265.774889 
L 80.908531 264.04676 
L 81.740979 263.185609 
L 84.238322 259.649125 
L 85.070769 259.712611 
L 86.735664 256.9759 
L 87.568112 256.351953 
L 88.400559 254.935921 
L 90.065455 253.425777 
L 90.897902 253.121119 
L 91.73035 252.344409 
L 92.562797 250.838481 
L 93.395245 249.784888 
L 94.227692 248.415479 
L 95.06014 247.658608 
L 95.892587 246.637875 
L 97.557483 245.766061 
L 98.38993 244.615132 
L 99.222378 243.742697 
L 100.054825 242.501252 
L 101.71972 241.573019 
L 103.384615 239.198624 
L 104.217063 238.748395 
L 105.04951 237.94949 
L 105.881958 236.982075 
L 106.714406 235.744597 
L 107.546853 235.677019 
L 108.379301 234.516667 
L 109.211748 233.976541 
L 110.044196 233.867921 
L 111.709091 231.974629 
L 112.541538 231.643064 
L 113.373986 230.81998 
L 114.206434 230.623695 
L 115.038881 231.113354 
L 115.871329 229.652932 
L 116.703776 229.365634 
L 117.536224 229.706374 
L 118.368671 229.048824 
L 119.201119 229.39812 
L 120.033566 228.924209 
L 121.698462 227.17376 
L 123.363357 227.399308 
L 124.195804 227.268369 
L 125.028252 227.522436 
L 125.860699 226.418378 
L 127.525594 226.570025 
L 128.358042 227.015417 
L 129.19049 225.400496 
L 130.855385 227.038853 
L 131.687832 226.363324 
L 132.52028 225.986128 
L 133.352727 225.918179 
L 135.017622 226.544358 
L 135.85007 226.82248 
L 136.682517 226.464008 
L 137.514965 226.376343 
L 138.347413 226.678025 
L 139.17986 226.066726 
L 142.50965 226.415154 
L 143.342098 226.739775 
L 144.174545 227.916991 
L 145.006993 226.909773 
L 145.839441 227.664659 
L 146.671888 226.778338 
L 147.504336 226.256687 
L 148.336783 226.620615 
L 149.169231 226.810452 
L 150.001678 227.696774 
L 151.666573 228.087485 
L 152.499021 228.76971 
L 153.331469 228.668901 
L 154.163916 228.718128 
L 154.996364 229.23519 
L 155.828811 230.540122 
L 156.661259 230.450473 
L 157.493706 231.349938 
L 158.326154 230.985019 
L 159.991049 232.29367 
L 160.823497 233.368094 
L 161.655944 233.651424 
L 162.488392 233.546648 
L 163.320839 233.975177 
L 164.153287 234.674389 
L 164.985734 236.228305 
L 165.818182 236.377596 
L 166.650629 237.772176 
L 167.483077 237.761637 
L 168.315524 238.417946 
L 169.98042 238.550622 
L 170.812867 240.411178 
L 171.645315 241.735825 
L 172.477762 242.19461 
L 173.31021 242.210481 
L 174.142657 242.570193 
L 174.975105 244.25046 
L 176.64 244.889038 
L 177.472448 245.701459 
L 178.304895 246.19397 
L 179.137343 246.907814 
L 179.96979 247.879321 
L 183.29958 250.721305 
L 184.132028 250.72304 
L 184.964476 251.487971 
L 185.796923 251.716619 
L 186.629371 252.602073 
L 188.294266 252.43753 
L 189.126713 253.569612 
L 189.959161 255.190857 
L 190.791608 255.275174 
L 191.624056 255.054585 
L 192.456503 255.905196 
L 194.121399 256.178607 
L 195.786294 259.013523 
L 196.618741 259.185877 
L 197.451189 259.194433 
L 198.283636 260.324654 
L 199.116084 260.613565 
L 199.948531 260.425959 
L 200.780979 261.816572 
L 201.613427 262.049684 
L 202.445874 262.45887 
L 203.278322 263.839687 
L 204.110769 263.655429 
L 204.943217 264.046636 
L 206.608112 265.546489 
L 207.440559 265.393974 
L 208.273007 266.446946 
L 209.105455 267.290242 
L 209.937902 267.362655 
L 210.77035 268.155112 
L 211.602797 269.145715 
L 214.10014 269.80004 
L 214.932587 270.393608 
L 214.932587 270.393608 
" style="fill:none;stroke:#ff7f0e;stroke-linecap:square;stroke-width:1.5;"/>
   </g>
   <g id="line2d_25">
    <path clip-path="url(#p37be737cf6)" d="M 65.092028 270.938942 
L 65.924476 267.247587 
L 66.756923 266.084755 
L 67.589371 264.599533 
L 68.421818 263.460384 
L 69.254266 261.256607 
L 70.086713 260.46043 
L 70.919161 259.209808 
L 73.416503 253.514186 
L 74.248951 251.640609 
L 75.081399 250.866752 
L 75.913846 249.590711 
L 76.746294 249.076128 
L 77.578741 246.743644 
L 78.411189 245.147322 
L 79.243636 243.249938 
L 80.076084 241.979229 
L 81.740979 238.184214 
L 82.573427 237.934735 
L 83.405874 235.6578 
L 84.238322 234.120252 
L 85.070769 233.215083 
L 85.903217 231.718082 
L 86.735664 229.685791 
L 88.400559 226.533198 
L 90.897902 222.754178 
L 91.73035 220.926852 
L 92.562797 220.198129 
L 93.395245 218.437637 
L 94.227692 217.434759 
L 96.725035 212.818024 
L 97.557483 211.875656 
L 98.38993 210.205432 
L 99.222378 208.259194 
L 100.054825 207.165428 
L 100.887273 205.723605 
L 101.71972 203.459317 
L 102.552168 203.034384 
L 104.217063 200.047821 
L 105.04951 199.490336 
L 105.881958 197.652843 
L 107.546853 195.854408 
L 108.379301 194.279413 
L 109.211748 193.494396 
L 110.044196 193.447401 
L 110.876643 190.584091 
L 111.709091 190.298032 
L 112.541538 190.250666 
L 113.373986 189.205629 
L 114.206434 188.551428 
L 115.038881 187.138496 
L 115.871329 185.368704 
L 117.536224 184.374878 
L 118.368671 184.089811 
L 119.201119 184.826594 
L 120.033566 183.959864 
L 120.866014 183.653966 
L 121.698462 182.865229 
L 122.530909 183.470824 
L 123.363357 183.36518 
L 124.195804 182.202595 
L 125.028252 182.552883 
L 125.860699 180.946518 
L 127.525594 181.242744 
L 128.358042 181.846851 
L 129.19049 181.482676 
L 130.022937 181.818332 
L 130.855385 182.523124 
L 131.687832 182.033093 
L 132.52028 181.248572 
L 133.352727 181.36674 
L 135.017622 182.253558 
L 135.85007 182.097447 
L 136.682517 181.282051 
L 138.347413 181.396871 
L 139.17986 180.4116 
L 140.012308 181.427126 
L 140.844755 181.080929 
L 141.677203 181.640275 
L 142.50965 181.578153 
L 144.174545 182.534408 
L 145.006993 181.910461 
L 145.839441 181.850819 
L 146.671888 182.745325 
L 149.169231 183.935809 
L 150.001678 183.987267 
L 150.834126 183.914853 
L 151.666573 184.044925 
L 153.331469 185.71366 
L 154.163916 187.067322 
L 154.996364 186.836194 
L 155.828811 187.047855 
L 156.661259 188.713118 
L 157.493706 188.937675 
L 158.326154 189.993499 
L 159.158601 189.6106 
L 159.991049 191.667938 
L 160.823497 192.01463 
L 161.655944 192.633245 
L 162.488392 194.280901 
L 163.320839 193.525023 
L 164.153287 195.273859 
L 164.985734 196.049577 
L 166.650629 198.194828 
L 167.483077 198.955543 
L 168.315524 200.008515 
L 169.147972 200.683548 
L 169.98042 201.657535 
L 170.812867 203.345737 
L 171.645315 204.57962 
L 173.31021 206.665105 
L 174.142657 208.243819 
L 174.975105 208.634902 
L 175.807552 209.357673 
L 178.304895 213.478673 
L 179.137343 213.51302 
L 179.96979 214.52929 
L 180.802238 215.841785 
L 181.634685 216.221212 
L 182.467133 216.899221 
L 183.29958 218.703856 
L 184.132028 219.560543 
L 184.964476 220.214868 
L 185.796923 220.466332 
L 186.629371 221.693518 
L 188.294266 224.373687 
L 189.126713 225.049836 
L 189.959161 226.274171 
L 190.791608 225.518788 
L 191.624056 228.00974 
L 192.456503 227.89058 
L 193.288951 227.355166 
L 194.121399 229.07908 
L 194.953846 229.707986 
L 195.786294 231.162085 
L 196.618741 232.050143 
L 197.451189 232.225596 
L 198.283636 233.782984 
L 199.116084 234.459257 
L 199.948531 234.626155 
L 200.780979 236.182302 
L 201.613427 237.479298 
L 202.445874 237.740309 
L 204.110769 239.695847 
L 204.943217 239.955494 
L 205.775664 240.962712 
L 206.608112 242.252888 
L 207.440559 242.851664 
L 208.273007 243.803827 
L 209.105455 244.415499 
L 209.937902 245.767177 
L 212.435245 247.958926 
L 213.267692 249.960838 
L 214.10014 250.337414 
L 214.932587 251.354179 
L 214.932587 251.354179 
" style="fill:none;stroke:#2ca02c;stroke-linecap:square;stroke-width:1.5;"/>
   </g>
   <g id="line2d_26">
    <path clip-path="url(#p37be737cf6)" d="M 65.092028 256.982224 
L 65.924476 253.509846 
L 66.756923 252.096542 
L 67.589371 250.377092 
L 68.421818 248.996027 
L 69.254266 246.326026 
L 70.086713 244.190074 
L 70.919161 242.837032 
L 72.584056 238.041619 
L 73.416503 236.512255 
L 74.248951 234.576309 
L 75.913846 229.833346 
L 77.578741 225.736029 
L 78.411189 223.879192 
L 80.076084 219.239642 
L 81.740979 216.007195 
L 82.573427 213.635156 
L 85.070769 207.785407 
L 85.903217 205.243989 
L 86.735664 203.869124 
L 87.568112 201.674522 
L 88.400559 200.038398 
L 89.233007 197.391211 
L 90.897902 193.8489 
L 91.73035 192.654821 
L 92.562797 191.047215 
L 93.395245 188.324144 
L 94.227692 186.848594 
L 95.06014 185.711676 
L 95.892587 183.493763 
L 96.725035 182.256533 
L 97.557483 179.996958 
L 98.38993 178.426179 
L 102.552168 168.200247 
L 103.384615 166.501008 
L 104.217063 165.312385 
L 105.04951 162.749888 
L 105.881958 161.666661 
L 106.714406 159.314337 
L 107.546853 157.334744 
L 108.379301 155.930864 
L 109.211748 154.80957 
L 110.044196 153.257142 
L 110.876643 152.072735 
L 111.709091 149.861642 
L 112.541538 149.879993 
L 113.373986 150.113229 
L 114.206434 149.281713 
L 115.038881 146.321934 
L 115.871329 146.226953 
L 116.703776 145.568535 
L 117.536224 145.12401 
L 118.368671 143.789692 
L 119.201119 143.986721 
L 120.033566 142.49344 
L 120.866014 141.967078 
L 121.698462 142.455497 
L 122.530909 141.811587 
L 123.363357 142.542294 
L 124.195804 141.712018 
L 125.860699 139.722382 
L 126.693147 140.056799 
L 127.525594 139.530313 
L 128.358042 140.139752 
L 129.19049 139.745445 
L 130.855385 139.591442 
L 131.687832 139.545192 
L 132.52028 141.054097 
L 133.352727 140.092757 
L 134.185175 139.338739 
L 135.017622 138.867803 
L 135.85007 139.611282 
L 136.682517 139.646621 
L 137.514965 138.860487 
L 138.347413 139.323736 
L 139.17986 139.510597 
L 140.012308 139.446492 
L 140.844755 138.769598 
L 141.677203 138.900042 
L 142.50965 139.59851 
L 143.342098 139.733046 
L 144.174545 140.678142 
L 145.006993 140.485204 
L 145.839441 140.918569 
L 146.671888 141.59943 
L 147.504336 140.088294 
L 148.336783 141.008218 
L 149.169231 142.372172 
L 150.001678 143.504998 
L 150.834126 143.126191 
L 151.666573 142.6002 
L 152.499021 144.627035 
L 153.331469 144.465841 
L 154.996364 146.698757 
L 155.828811 148.761055 
L 156.661259 148.761675 
L 157.493706 149.157222 
L 158.326154 150.390484 
L 159.158601 151.282014 
L 159.991049 151.202532 
L 160.823497 153.852322 
L 161.655944 155.296501 
L 162.488392 156.086974 
L 163.320839 157.599599 
L 164.153287 158.545563 
L 164.985734 159.775477 
L 165.818182 161.628966 
L 166.650629 161.522454 
L 167.483077 164.277144 
L 169.147972 166.334234 
L 169.98042 168.526356 
L 170.812867 169.496995 
L 171.645315 171.65539 
L 172.477762 171.933388 
L 174.142657 175.257467 
L 174.975105 176.743929 
L 176.64 178.491153 
L 177.472448 181.281679 
L 178.304895 182.818854 
L 179.137343 183.289914 
L 179.96979 184.812211 
L 180.802238 184.832546 
L 181.634685 187.107001 
L 182.467133 188.470954 
L 183.29958 189.232289 
L 184.964476 191.739855 
L 185.796923 192.412285 
L 186.629371 194.251142 
L 188.294266 196.873777 
L 189.126713 197.503552 
L 189.959161 198.83415 
L 190.791608 199.259952 
L 191.624056 200.264938 
L 192.456503 202.739894 
L 193.288951 202.992101 
L 194.121399 204.194116 
L 194.953846 204.817071 
L 195.786294 206.472787 
L 196.618741 206.853454 
L 197.451189 208.111763 
L 198.283636 208.917116 
L 199.116084 210.088876 
L 199.948531 212.513118 
L 200.780979 212.863282 
L 201.613427 214.222276 
L 202.445874 216.052578 
L 203.278322 215.994672 
L 204.110769 218.544149 
L 204.943217 218.64099 
L 206.608112 220.675389 
L 207.440559 222.495399 
L 208.273007 223.245326 
L 209.105455 224.158803 
L 211.602797 228.952356 
L 212.435245 229.488141 
L 214.10014 231.611321 
L 214.932587 232.727284 
L 214.932587 232.727284 
" style="fill:none;stroke:#d62728;stroke-linecap:square;stroke-width:1.5;"/>
   </g>
   <g id="line2d_27">
    <path clip-path="url(#p37be737cf6)" d="M 65.092028 243.36637 
L 65.924476 241.643449 
L 66.756923 239.570611 
L 67.589371 236.909414 
L 68.421818 235.001986 
L 70.086713 229.120742 
L 70.919161 228.058098 
L 71.751608 224.660614 
L 73.416503 219.645108 
L 74.248951 217.667375 
L 75.913846 211.86524 
L 76.746294 209.857872 
L 77.578741 206.808072 
L 78.411189 204.383334 
L 79.243636 201.155228 
L 80.076084 198.415789 
L 80.908531 197.010421 
L 81.740979 193.715976 
L 84.238322 185.846212 
L 85.070769 184.047529 
L 85.903217 181.339213 
L 86.735664 179.260795 
L 87.568112 177.675261 
L 89.233007 172.491369 
L 90.065455 171.538089 
L 91.73035 166.259961 
L 93.395245 160.794722 
L 94.227692 157.611874 
L 95.06014 155.385034 
L 95.892587 153.808056 
L 96.725035 149.964558 
L 97.557483 149.124363 
L 99.222378 144.390824 
L 100.054825 142.49468 
L 100.887273 138.350617 
L 101.71972 138.323958 
L 102.552168 136.170275 
L 104.217063 130.204961 
L 105.04951 128.298154 
L 105.881958 126.685589 
L 107.546853 122.603151 
L 108.379301 119.373557 
L 109.211748 118.803548 
L 110.044196 116.466352 
L 110.876643 114.867922 
L 111.709091 113.780603 
L 112.541538 111.334662 
L 113.373986 110.39651 
L 114.206434 110.217088 
L 115.038881 108.545873 
L 115.871329 107.796566 
L 116.703776 105.828009 
L 117.536224 105.381748 
L 118.368671 103.287459 
L 119.201119 103.194587 
L 120.866014 100.192028 
L 121.698462 100.646597 
L 122.530909 101.662743 
L 123.363357 101.68345 
L 124.195804 100.705371 
L 125.028252 100.674248 
L 125.860699 100.329416 
L 126.693147 99.765359 
L 127.525594 100.03691 
L 128.358042 99.675586 
L 129.19049 100.579639 
L 130.022937 98.809352 
L 130.855385 99.19101 
L 131.687832 97.834372 
L 132.52028 98.418393 
L 133.352727 97.641931 
L 134.185175 98.342755 
L 135.017622 98.878417 
L 135.85007 99.84422 
L 136.682517 99.14848 
L 137.514965 99.766847 
L 138.347413 98.824603 
L 139.17986 99.068255 
L 140.012308 98.567684 
L 140.844755 99.217918 
L 141.677203 100.594023 
L 142.50965 99.537827 
L 143.342098 99.710305 
L 144.174545 100.711447 
L 145.006993 100.467051 
L 145.839441 101.641291 
L 146.671888 101.22107 
L 147.504336 99.566594 
L 148.336783 101.165272 
L 149.169231 103.082371 
L 150.001678 103.062531 
L 150.834126 103.593977 
L 151.666573 104.811616 
L 153.331469 105.575058 
L 154.163916 107.607101 
L 154.996364 107.912626 
L 155.828811 109.331138 
L 156.661259 109.580122 
L 157.493706 112.22768 
L 158.326154 112.667121 
L 159.991049 115.295459 
L 160.823497 117.036485 
L 161.655944 118.379607 
L 163.320839 121.802759 
L 164.153287 122.649774 
L 164.985734 125.320395 
L 165.818182 124.551497 
L 166.650629 127.194344 
L 168.315524 129.960689 
L 169.98042 135.251094 
L 170.812867 136.250748 
L 171.645315 138.459485 
L 172.477762 139.552508 
L 173.31021 140.889431 
L 174.142657 142.563746 
L 174.975105 144.789718 
L 176.64 148.337237 
L 177.472448 150.832777 
L 178.304895 151.828091 
L 179.96979 155.376974 
L 180.802238 156.671614 
L 181.634685 159.108752 
L 182.467133 159.104164 
L 183.29958 161.799956 
L 184.132028 162.792915 
L 185.796923 166.595121 
L 186.629371 166.946897 
L 187.461818 168.370865 
L 188.294266 169.382299 
L 189.126713 170.593366 
L 189.959161 172.466818 
L 191.624056 174.510021 
L 192.456503 177.506379 
L 193.288951 178.330083 
L 194.121399 179.478408 
L 195.786294 181.123088 
L 196.618741 184.282997 
L 197.451189 184.805391 
L 200.780979 191.036303 
L 201.613427 191.615612 
L 202.445874 194.606266 
L 203.278322 194.521577 
L 204.110769 195.459729 
L 204.943217 196.7814 
L 205.775664 199.396471 
L 207.440559 201.457902 
L 209.105455 206.060625 
L 209.937902 206.601247 
L 210.77035 208.213936 
L 211.602797 209.09319 
L 212.435245 210.284046 
L 214.10014 213.309667 
L 214.932587 213.724433 
L 214.932587 213.724433 
" style="fill:none;stroke:#9467bd;stroke-linecap:square;stroke-width:1.5;"/>
   </g>
   <g id="line2d_28">
    <path clip-path="url(#p37be737cf6)" d="M 65.092028 231.77388 
L 65.924476 227.671727 
L 66.756923 225.318163 
L 68.421818 219.089979 
L 70.919161 210.027126 
L 71.751608 207.851868 
L 72.584056 205.049935 
L 73.416503 200.750754 
L 74.248951 198.564956 
L 77.578741 184.854121 
L 78.411189 182.533912 
L 79.243636 178.778204 
L 80.908531 173.522022 
L 81.740979 169.580196 
L 82.573427 166.331382 
L 83.405874 164.151412 
L 84.238322 159.99123 
L 86.735664 152.14862 
L 88.400559 145.869969 
L 89.233007 144.38388 
L 90.065455 140.727368 
L 90.897902 138.981631 
L 91.73035 133.975053 
L 92.562797 131.82199 
L 93.395245 128.822904 
L 95.892587 121.818754 
L 97.557483 113.863432 
L 98.38993 111.693258 
L 99.222378 111.169624 
L 100.054825 106.189085 
L 100.887273 103.070963 
L 101.71972 100.386826 
L 102.552168 98.497378 
L 103.384615 94.442716 
L 104.217063 92.606338 
L 105.04951 90.308448 
L 105.881958 86.952254 
L 106.714406 85.910814 
L 107.546853 82.237686 
L 108.379301 79.285967 
L 109.211748 77.172954 
L 110.044196 76.087743 
L 110.876643 74.258681 
L 111.709091 71.309689 
L 113.373986 68.582278 
L 114.206434 67.827392 
L 115.038881 66.437399 
L 115.871329 64.475661 
L 116.703776 63.171102 
L 117.536224 62.10697 
L 118.368671 61.254003 
L 119.201119 60.158376 
L 120.033566 59.310865 
L 120.866014 58.914078 
L 121.698462 58.780535 
L 122.530909 56.178979 
L 123.363357 56.397956 
L 124.195804 56.333478 
L 125.028252 55.980958 
L 125.860699 57.244103 
L 126.693147 57.729175 
L 127.525594 56.365469 
L 128.358042 54.241917 
L 129.19049 54.131933 
L 130.022937 53.885181 
L 130.855385 54.593941 
L 131.687832 55.896765 
L 132.52028 55.012551 
L 133.352727 53.850462 
L 134.185175 53.568 
L 135.017622 54.763691 
L 135.85007 53.883817 
L 137.514965 55.205736 
L 138.347413 54.533927 
L 139.17986 55.745242 
L 140.012308 55.414173 
L 140.844755 55.507666 
L 141.677203 55.98381 
L 143.342098 54.591585 
L 144.174545 55.34238 
L 145.006993 56.433666 
L 145.839441 55.610335 
L 146.671888 55.485595 
L 147.504336 56.824501 
L 148.336783 59.096228 
L 149.169231 57.73339 
L 150.001678 58.352502 
L 150.834126 60.106298 
L 151.666573 60.027313 
L 152.499021 61.475459 
L 154.163916 62.933278 
L 155.828811 66.257729 
L 156.661259 67.221548 
L 157.493706 70.446927 
L 158.326154 69.909777 
L 159.158601 72.04672 
L 159.991049 73.760714 
L 160.823497 74.95653 
L 161.655944 77.354112 
L 162.488392 80.158401 
L 163.320839 80.1925 
L 165.818182 87.08152 
L 166.650629 87.458157 
L 167.483077 89.277361 
L 169.98042 97.166655 
L 170.812867 97.474475 
L 171.645315 100.890807 
L 172.477762 102.652167 
L 173.31021 103.684246 
L 174.142657 108.832923 
L 174.975105 109.130141 
L 175.807552 112.28292 
L 176.64 113.437569 
L 177.472448 114.960113 
L 178.304895 118.669013 
L 179.137343 119.723039 
L 179.96979 121.453338 
L 180.802238 124.616719 
L 183.29958 129.868437 
L 184.132028 131.030711 
L 184.964476 131.871031 
L 185.796923 135.305404 
L 186.629371 137.329015 
L 187.461818 138.013286 
L 188.294266 139.99914 
L 189.126713 140.323141 
L 189.959161 143.688139 
L 192.456503 149.074516 
L 193.288951 149.923205 
L 194.121399 151.578177 
L 194.953846 153.696087 
L 195.786294 155.358871 
L 196.618741 154.930899 
L 197.451189 158.899819 
L 198.283636 160.520754 
L 199.116084 162.561662 
L 199.948531 163.362923 
L 200.780979 166.061691 
L 201.613427 168.287292 
L 202.445874 169.416645 
L 204.110769 172.045294 
L 204.943217 174.59471 
L 205.775664 176.061456 
L 206.608112 176.468224 
L 207.440559 179.561299 
L 208.273007 180.842609 
L 209.937902 184.631301 
L 210.77035 185.782044 
L 211.602797 188.171319 
L 212.435245 189.404829 
L 214.10014 193.12619 
L 214.932587 195.981565 
L 214.932587 195.981565 
" style="fill:none;stroke:#8c564b;stroke-linecap:square;stroke-width:1.5;"/>
   </g>
   <g id="patch_3">
    <path d="M 57.6 307.584 
L 57.6 41.472 
" style="fill:none;stroke:#000000;stroke-linecap:square;stroke-linejoin:miter;stroke-width:0.8;"/>
   </g>
   <g id="patch_4">
    <path d="M 414.72 307.584 
L 414.72 41.472 
" style="fill:none;stroke:#000000;stroke-linecap:square;stroke-linejoin:miter;stroke-width:0.8;"/>
   </g>
   <g id="patch_5">
    <path d="M 57.6 307.584 
L 414.72 307.584 
" style="fill:none;stroke:#000000;stroke-linecap:square;stroke-linejoin:miter;stroke-width:0.8;"/>
   </g>
   <g id="patch_6">
    <path d="M 57.6 41.472 
L 414.72 41.472 
" style="fill:none;stroke:#000000;stroke-linecap:square;stroke-linejoin:miter;stroke-width:0.8;"/>
   </g>
   <g id="legend_1">
    <g id="patch_7">
     <path d="M 353.454375 137.54075 
L 407.72 137.54075 
Q 409.72 137.54075 409.72 135.54075 
L 409.72 48.472 
Q 409.72 46.472 407.72 46.472 
L 353.454375 46.472 
Q 351.454375 46.472 351.454375 48.472 
L 351.454375 135.54075 
Q 351.454375 137.54075 353.454375 137.54075 
z
" style="fill:#ffffff;opacity:0.8;stroke:#cccccc;stroke-linejoin:miter;"/>
    </g>
    <g id="line2d_29">
     <path d="M 355.454375 54.570438 
L 375.454375 54.570438 
" style="fill:none;stroke:#1f77b4;stroke-linecap:square;stroke-width:1.5;"/>
    </g>
    <g id="line2d_30"/>
    <g id="text_11">
     <!-- 0.05 -->
     <g transform="translate(383.454375 58.070438)scale(0.1 -0.1)">
      <use xlink:href="#DejaVuSans-48"/>
      <use x="63.623047" xlink:href="#DejaVuSans-46"/>
      <use x="95.410156" xlink:href="#DejaVuSans-48"/>
      <use x="159.033203" xlink:href="#DejaVuSans-53"/>
     </g>
    </g>
    <g id="line2d_31">
     <path d="M 355.454375 69.248563 
L 375.454375 69.248563 
" style="fill:none;stroke:#ff7f0e;stroke-linecap:square;stroke-width:1.5;"/>
    </g>
    <g id="line2d_32"/>
    <g id="text_12">
     <!-- 0.1 -->
     <g transform="translate(383.454375 72.748563)scale(0.1 -0.1)">
      <use xlink:href="#DejaVuSans-48"/>
      <use x="63.623047" xlink:href="#DejaVuSans-46"/>
      <use x="95.410156" xlink:href="#DejaVuSans-49"/>
     </g>
    </g>
    <g id="line2d_33">
     <path d="M 355.454375 83.926688 
L 375.454375 83.926688 
" style="fill:none;stroke:#2ca02c;stroke-linecap:square;stroke-width:1.5;"/>
    </g>
    <g id="line2d_34"/>
    <g id="text_13">
     <!-- 0.15 -->
     <g transform="translate(383.454375 87.426688)scale(0.1 -0.1)">
      <use xlink:href="#DejaVuSans-48"/>
      <use x="63.623047" xlink:href="#DejaVuSans-46"/>
      <use x="95.410156" xlink:href="#DejaVuSans-49"/>
      <use x="159.033203" xlink:href="#DejaVuSans-53"/>
     </g>
    </g>
    <g id="line2d_35">
     <path d="M 355.454375 98.604813 
L 375.454375 98.604813 
" style="fill:none;stroke:#d62728;stroke-linecap:square;stroke-width:1.5;"/>
    </g>
    <g id="line2d_36"/>
    <g id="text_14">
     <!-- 0.2 -->
     <g transform="translate(383.454375 102.104813)scale(0.1 -0.1)">
      <use xlink:href="#DejaVuSans-48"/>
      <use x="63.623047" xlink:href="#DejaVuSans-46"/>
      <use x="95.410156" xlink:href="#DejaVuSans-50"/>
     </g>
    </g>
    <g id="line2d_37">
     <path d="M 355.454375 113.282938 
L 375.454375 113.282938 
" style="fill:none;stroke:#9467bd;stroke-linecap:square;stroke-width:1.5;"/>
    </g>
    <g id="line2d_38"/>
    <g id="text_15">
     <!-- 0.25 -->
     <g transform="translate(383.454375 116.782938)scale(0.1 -0.1)">
      <use xlink:href="#DejaVuSans-48"/>
      <use x="63.623047" xlink:href="#DejaVuSans-46"/>
      <use x="95.410156" xlink:href="#DejaVuSans-50"/>
      <use x="159.033203" xlink:href="#DejaVuSans-53"/>
     </g>
    </g>
    <g id="line2d_39">
     <path d="M 355.454375 127.961063 
L 375.454375 127.961063 
" style="fill:none;stroke:#8c564b;stroke-linecap:square;stroke-width:1.5;"/>
    </g>
    <g id="line2d_40"/>
    <g id="text_16">
     <!-- 0.3 -->
     <g transform="translate(383.454375 131.461063)scale(0.1 -0.1)">
      <use xlink:href="#DejaVuSans-48"/>
      <use x="63.623047" xlink:href="#DejaVuSans-46"/>
      <use x="95.410156" xlink:href="#DejaVuSans-51"/>
     </g>
    </g>
   </g>
  </g>
 </g>
 <defs>
  <clipPath id="p37be737cf6">
   <rect height="266.112" width="357.12" x="57.6" y="41.472"/>
  </clipPath>
 </defs>
</svg>
