<?xml version="1.0" encoding="utf-8" standalone="no"?>
<!DOCTYPE svg PUBLIC "-//W3C//DTD SVG 1.1//EN"
  "http://www.w3.org/Graphics/SVG/1.1/DTD/svg11.dtd">
<!-- Created with matplotlib (https://matplotlib.org/) -->
<svg height="345.6pt" version="1.1" viewBox="0 0 460.8 345.6" width="460.8pt" xmlns="http://www.w3.org/2000/svg" xmlns:xlink="http://www.w3.org/1999/xlink">
 <defs>
  <style type="text/css">
*{stroke-linecap:butt;stroke-linejoin:round;}
  </style>
 </defs>
 <g id="figure_1">
  <g id="patch_1">
   <path d="M 0 345.6 
L 460.8 345.6 
L 460.8 0 
L 0 0 
z
" style="fill:#ffffff;"/>
  </g>
  <g id="axes_1">
   <g id="patch_2">
    <path d="M 57.6 307.584 
L 414.72 307.584 
L 414.72 41.472 
L 57.6 41.472 
z
" style="fill:#ffffff;"/>
   </g>
   <g id="matplotlib.axis_1">
    <g id="xtick_1">
     <g id="line2d_1">
      <defs>
       <path d="M 0 0 
L 0 3.5 
" id="mdc1a02f34a" style="stroke:#000000;stroke-width:0.8;"/>
      </defs>
      <g>
       <use style="stroke:#000000;stroke-width:0.8;" x="57.6" xlink:href="#mdc1a02f34a" y="307.584"/>
      </g>
     </g>
     <g id="text_1">
      <!-- 400 -->
      <defs>
       <path d="M 37.796875 64.3125 
L 12.890625 25.390625 
L 37.796875 25.390625 
z
M 35.203125 72.90625 
L 47.609375 72.90625 
L 47.609375 25.390625 
L 58.015625 25.390625 
L 58.015625 17.1875 
L 47.609375 17.1875 
L 47.609375 0 
L 37.796875 0 
L 37.796875 17.1875 
L 4.890625 17.1875 
L 4.890625 26.703125 
z
" id="DejaVuSans-52"/>
       <path d="M 31.78125 66.40625 
Q 24.171875 66.40625 20.328125 58.90625 
Q 16.5 51.421875 16.5 36.375 
Q 16.5 21.390625 20.328125 13.890625 
Q 24.171875 6.390625 31.78125 6.390625 
Q 39.453125 6.390625 43.28125 13.890625 
Q 47.125 21.390625 47.125 36.375 
Q 47.125 51.421875 43.28125 58.90625 
Q 39.453125 66.40625 31.78125 66.40625 
z
M 31.78125 74.21875 
Q 44.046875 74.21875 50.515625 64.515625 
Q 56.984375 54.828125 56.984375 36.375 
Q 56.984375 17.96875 50.515625 8.265625 
Q 44.046875 -1.421875 31.78125 -1.421875 
Q 19.53125 -1.421875 13.0625 8.265625 
Q 6.59375 17.96875 6.59375 36.375 
Q 6.59375 54.828125 13.0625 64.515625 
Q 19.53125 74.21875 31.78125 74.21875 
z
" id="DejaVuSans-48"/>
      </defs>
      <g transform="translate(48.05625 322.182437)scale(0.1 -0.1)">
       <use xlink:href="#DejaVuSans-52"/>
       <use x="63.623047" xlink:href="#DejaVuSans-48"/>
       <use x="127.246094" xlink:href="#DejaVuSans-48"/>
      </g>
     </g>
    </g>
    <g id="xtick_2">
     <g id="line2d_2">
      <g>
       <use style="stroke:#000000;stroke-width:0.8;" x="129.024" xlink:href="#mdc1a02f34a" y="307.584"/>
      </g>
     </g>
     <g id="text_2">
      <!-- 420 -->
      <defs>
       <path d="M 19.1875 8.296875 
L 53.609375 8.296875 
L 53.609375 0 
L 7.328125 0 
L 7.328125 8.296875 
Q 12.9375 14.109375 22.625 23.890625 
Q 32.328125 33.6875 34.8125 36.53125 
Q 39.546875 41.84375 41.421875 45.53125 
Q 43.3125 49.21875 43.3125 52.78125 
Q 43.3125 58.59375 39.234375 62.25 
Q 35.15625 65.921875 28.609375 65.921875 
Q 23.96875 65.921875 18.8125 64.3125 
Q 13.671875 62.703125 7.8125 59.421875 
L 7.8125 69.390625 
Q 13.765625 71.78125 18.9375 73 
Q 24.125 74.21875 28.421875 74.21875 
Q 39.75 74.21875 46.484375 68.546875 
Q 53.21875 62.890625 53.21875 53.421875 
Q 53.21875 48.921875 51.53125 44.890625 
Q 49.859375 40.875 45.40625 35.40625 
Q 44.1875 33.984375 37.640625 27.21875 
Q 31.109375 20.453125 19.1875 8.296875 
z
" id="DejaVuSans-50"/>
      </defs>
      <g transform="translate(119.48025 322.182437)scale(0.1 -0.1)">
       <use xlink:href="#DejaVuSans-52"/>
       <use x="63.623047" xlink:href="#DejaVuSans-50"/>
       <use x="127.246094" xlink:href="#DejaVuSans-48"/>
      </g>
     </g>
    </g>
    <g id="xtick_3">
     <g id="line2d_3">
      <g>
       <use style="stroke:#000000;stroke-width:0.8;" x="200.448" xlink:href="#mdc1a02f34a" y="307.584"/>
      </g>
     </g>
     <g id="text_3">
      <!-- 440 -->
      <g transform="translate(190.90425 322.182437)scale(0.1 -0.1)">
       <use xlink:href="#DejaVuSans-52"/>
       <use x="63.623047" xlink:href="#DejaVuSans-52"/>
       <use x="127.246094" xlink:href="#DejaVuSans-48"/>
      </g>
     </g>
    </g>
    <g id="xtick_4">
     <g id="line2d_4">
      <g>
       <use style="stroke:#000000;stroke-width:0.8;" x="271.872" xlink:href="#mdc1a02f34a" y="307.584"/>
      </g>
     </g>
     <g id="text_4">
      <!-- 460 -->
      <defs>
       <path d="M 33.015625 40.375 
Q 26.375 40.375 22.484375 35.828125 
Q 18.609375 31.296875 18.609375 23.390625 
Q 18.609375 15.53125 22.484375 10.953125 
Q 26.375 6.390625 33.015625 6.390625 
Q 39.65625 6.390625 43.53125 10.953125 
Q 47.40625 15.53125 47.40625 23.390625 
Q 47.40625 31.296875 43.53125 35.828125 
Q 39.65625 40.375 33.015625 40.375 
z
M 52.59375 71.296875 
L 52.59375 62.3125 
Q 48.875 64.0625 45.09375 64.984375 
Q 41.3125 65.921875 37.59375 65.921875 
Q 27.828125 65.921875 22.671875 59.328125 
Q 17.53125 52.734375 16.796875 39.40625 
Q 19.671875 43.65625 24.015625 45.921875 
Q 28.375 48.1875 33.59375 48.1875 
Q 44.578125 48.1875 50.953125 41.515625 
Q 57.328125 34.859375 57.328125 23.390625 
Q 57.328125 12.15625 50.6875 5.359375 
Q 44.046875 -1.421875 33.015625 -1.421875 
Q 20.359375 -1.421875 13.671875 8.265625 
Q 6.984375 17.96875 6.984375 36.375 
Q 6.984375 53.65625 15.1875 63.9375 
Q 23.390625 74.21875 37.203125 74.21875 
Q 40.921875 74.21875 44.703125 73.484375 
Q 48.484375 72.75 52.59375 71.296875 
z
" id="DejaVuSans-54"/>
      </defs>
      <g transform="translate(262.32825 322.182437)scale(0.1 -0.1)">
       <use xlink:href="#DejaVuSans-52"/>
       <use x="63.623047" xlink:href="#DejaVuSans-54"/>
       <use x="127.246094" xlink:href="#DejaVuSans-48"/>
      </g>
     </g>
    </g>
    <g id="xtick_5">
     <g id="line2d_5">
      <g>
       <use style="stroke:#000000;stroke-width:0.8;" x="343.296" xlink:href="#mdc1a02f34a" y="307.584"/>
      </g>
     </g>
     <g id="text_5">
      <!-- 480 -->
      <defs>
       <path d="M 31.78125 34.625 
Q 24.75 34.625 20.71875 30.859375 
Q 16.703125 27.09375 16.703125 20.515625 
Q 16.703125 13.921875 20.71875 10.15625 
Q 24.75 6.390625 31.78125 6.390625 
Q 38.8125 6.390625 42.859375 10.171875 
Q 46.921875 13.96875 46.921875 20.515625 
Q 46.921875 27.09375 42.890625 30.859375 
Q 38.875 34.625 31.78125 34.625 
z
M 21.921875 38.8125 
Q 15.578125 40.375 12.03125 44.71875 
Q 8.5 49.078125 8.5 55.328125 
Q 8.5 64.0625 14.71875 69.140625 
Q 20.953125 74.21875 31.78125 74.21875 
Q 42.671875 74.21875 48.875 69.140625 
Q 55.078125 64.0625 55.078125 55.328125 
Q 55.078125 49.078125 51.53125 44.71875 
Q 48 40.375 41.703125 38.8125 
Q 48.828125 37.15625 52.796875 32.3125 
Q 56.78125 27.484375 56.78125 20.515625 
Q 56.78125 9.90625 50.3125 4.234375 
Q 43.84375 -1.421875 31.78125 -1.421875 
Q 19.734375 -1.421875 13.25 4.234375 
Q 6.78125 9.90625 6.78125 20.515625 
Q 6.78125 27.484375 10.78125 32.3125 
Q 14.796875 37.15625 21.921875 38.8125 
z
M 18.3125 54.390625 
Q 18.3125 48.734375 21.84375 45.5625 
Q 25.390625 42.390625 31.78125 42.390625 
Q 38.140625 42.390625 41.71875 45.5625 
Q 45.3125 48.734375 45.3125 54.390625 
Q 45.3125 60.0625 41.71875 63.234375 
Q 38.140625 66.40625 31.78125 66.40625 
Q 25.390625 66.40625 21.84375 63.234375 
Q 18.3125 60.0625 18.3125 54.390625 
z
" id="DejaVuSans-56"/>
      </defs>
      <g transform="translate(333.75225 322.182437)scale(0.1 -0.1)">
       <use xlink:href="#DejaVuSans-52"/>
       <use x="63.623047" xlink:href="#DejaVuSans-56"/>
       <use x="127.246094" xlink:href="#DejaVuSans-48"/>
      </g>
     </g>
    </g>
    <g id="xtick_6">
     <g id="line2d_6">
      <g>
       <use style="stroke:#000000;stroke-width:0.8;" x="414.72" xlink:href="#mdc1a02f34a" y="307.584"/>
      </g>
     </g>
     <g id="text_6">
      <!-- 500 -->
      <defs>
       <path d="M 10.796875 72.90625 
L 49.515625 72.90625 
L 49.515625 64.59375 
L 19.828125 64.59375 
L 19.828125 46.734375 
Q 21.96875 47.46875 24.109375 47.828125 
Q 26.265625 48.1875 28.421875 48.1875 
Q 40.625 48.1875 47.75 41.5 
Q 54.890625 34.8125 54.890625 23.390625 
Q 54.890625 11.625 47.5625 5.09375 
Q 40.234375 -1.421875 26.90625 -1.421875 
Q 22.3125 -1.421875 17.546875 -0.640625 
Q 12.796875 0.140625 7.71875 1.703125 
L 7.71875 11.625 
Q 12.109375 9.234375 16.796875 8.0625 
Q 21.484375 6.890625 26.703125 6.890625 
Q 35.15625 6.890625 40.078125 11.328125 
Q 45.015625 15.765625 45.015625 23.390625 
Q 45.015625 31 40.078125 35.4375 
Q 35.15625 39.890625 26.703125 39.890625 
Q 22.75 39.890625 18.8125 39.015625 
Q 14.890625 38.140625 10.796875 36.28125 
z
" id="DejaVuSans-53"/>
      </defs>
      <g transform="translate(405.17625 322.182437)scale(0.1 -0.1)">
       <use xlink:href="#DejaVuSans-53"/>
       <use x="63.623047" xlink:href="#DejaVuSans-48"/>
       <use x="127.246094" xlink:href="#DejaVuSans-48"/>
      </g>
     </g>
    </g>
    <g id="text_7">
     <!-- $\lambda$ nm -->
     <defs>
      <path d="M 36.71875 67.4375 
L 48.828125 0 
L 39.3125 0 
L 31.84375 40.4375 
L 5.125 0 
L -4.390625 0 
L 29.734375 52.4375 
L 28.03125 62.109375 
Q 26.953125 68.265625 21.734375 68.265625 
L 17.046875 68.265625 
L 18.5 75.984375 
L 24.21875 75.875 
Q 35.203125 75.734375 36.71875 67.4375 
z
" id="DejaVuSans-Oblique-955"/>
      <path id="DejaVuSans-32"/>
      <path d="M 54.890625 33.015625 
L 54.890625 0 
L 45.90625 0 
L 45.90625 32.71875 
Q 45.90625 40.484375 42.875 44.328125 
Q 39.84375 48.1875 33.796875 48.1875 
Q 26.515625 48.1875 22.3125 43.546875 
Q 18.109375 38.921875 18.109375 30.90625 
L 18.109375 0 
L 9.078125 0 
L 9.078125 54.6875 
L 18.109375 54.6875 
L 18.109375 46.1875 
Q 21.34375 51.125 25.703125 53.5625 
Q 30.078125 56 35.796875 56 
Q 45.21875 56 50.046875 50.171875 
Q 54.890625 44.34375 54.890625 33.015625 
z
" id="DejaVuSans-110"/>
      <path d="M 52 44.1875 
Q 55.375 50.25 60.0625 53.125 
Q 64.75 56 71.09375 56 
Q 79.640625 56 84.28125 50.015625 
Q 88.921875 44.046875 88.921875 33.015625 
L 88.921875 0 
L 79.890625 0 
L 79.890625 32.71875 
Q 79.890625 40.578125 77.09375 44.375 
Q 74.3125 48.1875 68.609375 48.1875 
Q 61.625 48.1875 57.5625 43.546875 
Q 53.515625 38.921875 53.515625 30.90625 
L 53.515625 0 
L 44.484375 0 
L 44.484375 32.71875 
Q 44.484375 40.625 41.703125 44.40625 
Q 38.921875 48.1875 33.109375 48.1875 
Q 26.21875 48.1875 22.15625 43.53125 
Q 18.109375 38.875 18.109375 30.90625 
L 18.109375 0 
L 9.078125 0 
L 9.078125 54.6875 
L 18.109375 54.6875 
L 18.109375 46.1875 
Q 21.1875 51.21875 25.484375 53.609375 
Q 29.78125 56 35.6875 56 
Q 41.65625 56 45.828125 52.96875 
Q 50 49.953125 52 44.1875 
z
" id="DejaVuSans-109"/>
     </defs>
     <g transform="translate(223.56 335.860562)scale(0.1 -0.1)">
      <use transform="translate(0 0.015625)" xlink:href="#DejaVuSans-Oblique-955"/>
      <use transform="translate(59.179688 0.015625)" xlink:href="#DejaVuSans-32"/>
      <use transform="translate(90.966797 0.015625)" xlink:href="#DejaVuSans-110"/>
      <use transform="translate(154.345703 0.015625)" xlink:href="#DejaVuSans-109"/>
     </g>
    </g>
   </g>
   <g id="matplotlib.axis_2">
    <g id="ytick_1">
     <g id="line2d_7">
      <defs>
       <path d="M 0 0 
L -3.5 0 
" id="m3225cdba01" style="stroke:#000000;stroke-width:0.8;"/>
      </defs>
      <g>
       <use style="stroke:#000000;stroke-width:0.8;" x="57.6" xlink:href="#m3225cdba01" y="305.587457"/>
      </g>
     </g>
     <g id="text_8">
      <!-- 0 -->
      <g transform="translate(44.2375 309.386676)scale(0.1 -0.1)">
       <use xlink:href="#DejaVuSans-48"/>
      </g>
     </g>
    </g>
    <g id="ytick_2">
     <g id="line2d_8">
      <g>
       <use style="stroke:#000000;stroke-width:0.8;" x="57.6" xlink:href="#m3225cdba01" y="268.38872"/>
      </g>
     </g>
     <g id="text_9">
      <!-- 100 -->
      <defs>
       <path d="M 12.40625 8.296875 
L 28.515625 8.296875 
L 28.515625 63.921875 
L 10.984375 60.40625 
L 10.984375 69.390625 
L 28.421875 72.90625 
L 38.28125 72.90625 
L 38.28125 8.296875 
L 54.390625 8.296875 
L 54.390625 0 
L 12.40625 0 
z
" id="DejaVuSans-49"/>
      </defs>
      <g transform="translate(31.5125 272.187939)scale(0.1 -0.1)">
       <use xlink:href="#DejaVuSans-49"/>
       <use x="63.623047" xlink:href="#DejaVuSans-48"/>
       <use x="127.246094" xlink:href="#DejaVuSans-48"/>
      </g>
     </g>
    </g>
    <g id="ytick_3">
     <g id="line2d_9">
      <g>
       <use style="stroke:#000000;stroke-width:0.8;" x="57.6" xlink:href="#m3225cdba01" y="231.189984"/>
      </g>
     </g>
     <g id="text_10">
      <!-- 200 -->
      <g transform="translate(31.5125 234.989202)scale(0.1 -0.1)">
       <use xlink:href="#DejaVuSans-50"/>
       <use x="63.623047" xlink:href="#DejaVuSans-48"/>
       <use x="127.246094" xlink:href="#DejaVuSans-48"/>
      </g>
     </g>
    </g>
    <g id="ytick_4">
     <g id="line2d_10">
      <g>
       <use style="stroke:#000000;stroke-width:0.8;" x="57.6" xlink:href="#m3225cdba01" y="193.991247"/>
      </g>
     </g>
     <g id="text_11">
      <!-- 300 -->
      <defs>
       <path d="M 40.578125 39.3125 
Q 47.65625 37.796875 51.625 33 
Q 55.609375 28.21875 55.609375 21.1875 
Q 55.609375 10.40625 48.1875 4.484375 
Q 40.765625 -1.421875 27.09375 -1.421875 
Q 22.515625 -1.421875 17.65625 -0.515625 
Q 12.796875 0.390625 7.625 2.203125 
L 7.625 11.71875 
Q 11.71875 9.328125 16.59375 8.109375 
Q 21.484375 6.890625 26.8125 6.890625 
Q 36.078125 6.890625 40.9375 10.546875 
Q 45.796875 14.203125 45.796875 21.1875 
Q 45.796875 27.640625 41.28125 31.265625 
Q 36.765625 34.90625 28.71875 34.90625 
L 20.21875 34.90625 
L 20.21875 43.015625 
L 29.109375 43.015625 
Q 36.375 43.015625 40.234375 45.921875 
Q 44.09375 48.828125 44.09375 54.296875 
Q 44.09375 59.90625 40.109375 62.90625 
Q 36.140625 65.921875 28.71875 65.921875 
Q 24.65625 65.921875 20.015625 65.03125 
Q 15.375 64.15625 9.8125 62.3125 
L 9.8125 71.09375 
Q 15.4375 72.65625 20.34375 73.4375 
Q 25.25 74.21875 29.59375 74.21875 
Q 40.828125 74.21875 47.359375 69.109375 
Q 53.90625 64.015625 53.90625 55.328125 
Q 53.90625 49.265625 50.4375 45.09375 
Q 46.96875 40.921875 40.578125 39.3125 
z
" id="DejaVuSans-51"/>
      </defs>
      <g transform="translate(31.5125 197.790466)scale(0.1 -0.1)">
       <use xlink:href="#DejaVuSans-51"/>
       <use x="63.623047" xlink:href="#DejaVuSans-48"/>
       <use x="127.246094" xlink:href="#DejaVuSans-48"/>
      </g>
     </g>
    </g>
    <g id="ytick_5">
     <g id="line2d_11">
      <g>
       <use style="stroke:#000000;stroke-width:0.8;" x="57.6" xlink:href="#m3225cdba01" y="156.79251"/>
      </g>
     </g>
     <g id="text_12">
      <!-- 400 -->
      <g transform="translate(31.5125 160.591729)scale(0.1 -0.1)">
       <use xlink:href="#DejaVuSans-52"/>
       <use x="63.623047" xlink:href="#DejaVuSans-48"/>
       <use x="127.246094" xlink:href="#DejaVuSans-48"/>
      </g>
     </g>
    </g>
    <g id="ytick_6">
     <g id="line2d_12">
      <g>
       <use style="stroke:#000000;stroke-width:0.8;" x="57.6" xlink:href="#m3225cdba01" y="119.593773"/>
      </g>
     </g>
     <g id="text_13">
      <!-- 500 -->
      <g transform="translate(31.5125 123.392992)scale(0.1 -0.1)">
       <use xlink:href="#DejaVuSans-53"/>
       <use x="63.623047" xlink:href="#DejaVuSans-48"/>
       <use x="127.246094" xlink:href="#DejaVuSans-48"/>
      </g>
     </g>
    </g>
    <g id="ytick_7">
     <g id="line2d_13">
      <g>
       <use style="stroke:#000000;stroke-width:0.8;" x="57.6" xlink:href="#m3225cdba01" y="82.395037"/>
      </g>
     </g>
     <g id="text_14">
      <!-- 600 -->
      <g transform="translate(31.5125 86.194256)scale(0.1 -0.1)">
       <use xlink:href="#DejaVuSans-54"/>
       <use x="63.623047" xlink:href="#DejaVuSans-48"/>
       <use x="127.246094" xlink:href="#DejaVuSans-48"/>
      </g>
     </g>
    </g>
    <g id="ytick_8">
     <g id="line2d_14">
      <g>
       <use style="stroke:#000000;stroke-width:0.8;" x="57.6" xlink:href="#m3225cdba01" y="45.1963"/>
      </g>
     </g>
     <g id="text_15">
      <!-- 700 -->
      <defs>
       <path d="M 8.203125 72.90625 
L 55.078125 72.90625 
L 55.078125 68.703125 
L 28.609375 0 
L 18.3125 0 
L 43.21875 64.59375 
L 8.203125 64.59375 
z
" id="DejaVuSans-55"/>
      </defs>
      <g transform="translate(31.5125 48.995519)scale(0.1 -0.1)">
       <use xlink:href="#DejaVuSans-55"/>
       <use x="63.623047" xlink:href="#DejaVuSans-48"/>
       <use x="127.246094" xlink:href="#DejaVuSans-48"/>
      </g>
     </g>
    </g>
    <g id="text_16">
     <!-- I / a.u. -->
     <defs>
      <path d="M 9.8125 72.90625 
L 19.671875 72.90625 
L 19.671875 0 
L 9.8125 0 
z
" id="DejaVuSans-73"/>
      <path d="M 25.390625 72.90625 
L 33.6875 72.90625 
L 8.296875 -9.28125 
L 0 -9.28125 
z
" id="DejaVuSans-47"/>
      <path d="M 34.28125 27.484375 
Q 23.390625 27.484375 19.1875 25 
Q 14.984375 22.515625 14.984375 16.5 
Q 14.984375 11.71875 18.140625 8.90625 
Q 21.296875 6.109375 26.703125 6.109375 
Q 34.1875 6.109375 38.703125 11.40625 
Q 43.21875 16.703125 43.21875 25.484375 
L 43.21875 27.484375 
z
M 52.203125 31.203125 
L 52.203125 0 
L 43.21875 0 
L 43.21875 8.296875 
Q 40.140625 3.328125 35.546875 0.953125 
Q 30.953125 -1.421875 24.3125 -1.421875 
Q 15.921875 -1.421875 10.953125 3.296875 
Q 6 8.015625 6 15.921875 
Q 6 25.140625 12.171875 29.828125 
Q 18.359375 34.515625 30.609375 34.515625 
L 43.21875 34.515625 
L 43.21875 35.40625 
Q 43.21875 41.609375 39.140625 45 
Q 35.0625 48.390625 27.6875 48.390625 
Q 23 48.390625 18.546875 47.265625 
Q 14.109375 46.140625 10.015625 43.890625 
L 10.015625 52.203125 
Q 14.9375 54.109375 19.578125 55.046875 
Q 24.21875 56 28.609375 56 
Q 40.484375 56 46.34375 49.84375 
Q 52.203125 43.703125 52.203125 31.203125 
z
" id="DejaVuSans-97"/>
      <path d="M 10.6875 12.40625 
L 21 12.40625 
L 21 0 
L 10.6875 0 
z
" id="DejaVuSans-46"/>
      <path d="M 8.5 21.578125 
L 8.5 54.6875 
L 17.484375 54.6875 
L 17.484375 21.921875 
Q 17.484375 14.15625 20.5 10.265625 
Q 23.53125 6.390625 29.59375 6.390625 
Q 36.859375 6.390625 41.078125 11.03125 
Q 45.3125 15.671875 45.3125 23.6875 
L 45.3125 54.6875 
L 54.296875 54.6875 
L 54.296875 0 
L 45.3125 0 
L 45.3125 8.40625 
Q 42.046875 3.421875 37.71875 1 
Q 33.40625 -1.421875 27.6875 -1.421875 
Q 18.265625 -1.421875 13.375 4.4375 
Q 8.5 10.296875 8.5 21.578125 
z
M 31.109375 56 
z
" id="DejaVuSans-117"/>
     </defs>
     <g transform="translate(25.432812 190.276437)rotate(-90)scale(0.1 -0.1)">
      <use xlink:href="#DejaVuSans-73"/>
      <use x="29.492188" xlink:href="#DejaVuSans-32"/>
      <use x="61.279297" xlink:href="#DejaVuSans-47"/>
      <use x="94.970703" xlink:href="#DejaVuSans-32"/>
      <use x="126.757812" xlink:href="#DejaVuSans-97"/>
      <use x="188.037109" xlink:href="#DejaVuSans-46"/>
      <use x="219.824219" xlink:href="#DejaVuSans-117"/>
      <use x="283.203125" xlink:href="#DejaVuSans-46"/>
     </g>
    </g>
   </g>
   <g id="line2d_15">
    <path clip-path="url(#p0be2596093)" d="M 75.456 295.488 
L 77.2416 293.55565 
L 80.8128 292.7839 
L 82.5984 291.998263 
L 84.384 291.583001 
L 86.1696 291.400975 
L 87.9552 291.014108 
L 89.7408 290.434304 
L 91.5264 290.194124 
L 93.312 289.12652 
L 95.0976 289.173019 
L 96.8832 288.111243 
L 98.6688 287.329697 
L 100.4544 286.88604 
L 102.24 286.947294 
L 104.0256 286.157937 
L 105.8112 285.857371 
L 111.168 284.116594 
L 112.9536 283.448877 
L 114.7392 283.735059 
L 116.5248 283.233 
L 118.3104 282.58351 
L 120.096 282.461499 
L 121.8816 281.01794 
L 123.6672 281.317141 
L 125.4528 281.11106 
L 127.2384 280.685383 
L 129.024 279.869738 
L 130.8096 279.204377 
L 132.5952 278.122142 
L 134.3808 277.916929 
L 136.1664 277.995914 
L 137.952 277.491003 
L 139.7376 277.156587 
L 141.5232 277.267315 
L 145.0944 276.063316 
L 146.88 276.041493 
L 148.6656 275.073953 
L 150.4512 274.385777 
L 152.2368 274.409832 
L 154.0224 273.780057 
L 155.808 273.409682 
L 157.5936 272.503893 
L 159.3792 272.482317 
L 161.1648 272.289008 
L 164.736 271.47386 
L 166.5216 270.777252 
L 170.0928 270.542403 
L 171.8784 269.712251 
L 173.664 269.64331 
L 175.4496 268.774719 
L 177.2352 268.817374 
L 179.0208 268.177308 
L 180.8064 268.221574 
L 182.592 268.419967 
L 184.3776 268.493249 
L 186.1632 268.059016 
L 187.9488 267.851075 
L 189.7344 267.405682 
L 191.52 266.815338 
L 193.3056 267.231344 
L 195.0912 266.618804 
L 196.8768 267.21386 
L 198.6624 266.922098 
L 200.448 266.390776 
L 202.2336 266.207635 
L 204.0192 267.019931 
L 207.5904 266.657491 
L 209.376 266.44459 
L 211.1616 266.601569 
L 212.9472 266.22735 
L 216.5184 266.944293 
L 218.304 266.394248 
L 220.0896 266.523204 
L 223.6608 266.398836 
L 225.4464 266.905607 
L 227.232 266.365605 
L 229.0176 266.827614 
L 230.8032 266.492329 
L 232.5888 266.6317 
L 234.3744 265.908557 
L 236.16 265.803532 
L 237.9456 266.620045 
L 241.5168 266.417187 
L 243.3024 266.44955 
L 246.8736 266.700394 
L 248.6592 266.479433 
L 250.4448 266.46567 
L 252.2304 266.879568 
L 254.016 266.013457 
L 255.8016 266.871136 
L 257.5872 266.75148 
L 259.3728 267.577292 
L 261.1584 267.108464 
L 262.944 267.720259 
L 264.7296 267.320497 
L 266.5152 267.500167 
L 268.3008 268.232858 
L 270.0864 267.956595 
L 271.872 268.905287 
L 273.6576 268.972989 
L 275.4432 268.91843 
L 277.2288 269.005848 
L 279.0144 268.958853 
L 280.8 270.193231 
L 282.5856 270.356161 
L 284.3712 270.146609 
L 286.1568 270.291684 
L 289.728 271.191397 
L 291.5136 271.321717 
L 293.2992 271.621787 
L 295.0848 272.28008 
L 296.8704 272.74804 
L 298.656 273.545829 
L 300.4416 273.536282 
L 302.2272 273.292506 
L 304.0128 273.612291 
L 305.7984 274.315595 
L 307.584 273.517682 
L 309.3696 274.458314 
L 311.1552 274.872956 
L 312.9408 274.822118 
L 314.7264 275.35964 
L 316.512 276.292584 
L 318.2976 277.065202 
L 320.0832 276.589926 
L 321.8688 276.755833 
L 323.6544 277.255411 
L 325.44 277.448101 
L 327.2256 277.153859 
L 330.7968 278.47739 
L 332.5824 278.505785 
L 334.368 279.157011 
L 337.9392 279.695152 
L 339.7248 279.552185 
L 341.5104 280.002166 
L 348.6528 280.646324 
L 350.4384 281.291846 
L 354.0096 281.964152 
L 355.7952 282.455919 
L 361.152 282.59901 
L 364.7232 283.512983 
L 366.5088 283.593704 
L 368.2944 284.105931 
L 370.08 284.218023 
L 371.8656 284.107915 
L 373.6512 284.653868 
L 382.5792 286.073992 
L 384.3648 286.192036 
L 386.1504 287.068314 
L 387.936 287.128328 
L 391.5072 287.990967 
L 393.2928 288.043541 
L 395.0784 288.322655 
L 396.864 288.752673 
L 396.864 288.752673 
" style="fill:none;stroke:#1f77b4;stroke-linecap:square;stroke-width:1.5;"/>
   </g>
   <g id="line2d_16">
    <path clip-path="url(#p0be2596093)" d="M 75.456 280.738205 
L 77.2416 281.886158 
L 82.5984 278.607338 
L 84.384 277.852699 
L 86.1696 276.926574 
L 87.9552 275.731875 
L 91.5264 274.157625 
L 93.312 272.796151 
L 95.0976 271.704864 
L 96.8832 270.110154 
L 98.6688 270.05138 
L 100.4544 268.762444 
L 102.24 268.003961 
L 104.0256 267.065189 
L 105.8112 265.774889 
L 107.5968 264.837977 
L 111.168 263.185609 
L 114.7392 261.010351 
L 116.5248 259.649125 
L 118.3104 259.712611 
L 121.8816 256.9759 
L 123.6672 256.351953 
L 125.4528 254.935921 
L 127.2384 254.104654 
L 129.024 253.425777 
L 130.8096 253.121119 
L 132.5952 252.344409 
L 134.3808 250.838481 
L 136.1664 249.784888 
L 137.952 248.415479 
L 139.7376 247.658608 
L 141.5232 246.637875 
L 145.0944 245.766061 
L 146.88 244.615132 
L 148.6656 243.742697 
L 150.4512 242.501252 
L 154.0224 241.573019 
L 157.5936 239.198624 
L 159.3792 238.748395 
L 161.1648 237.94949 
L 162.9504 236.982075 
L 164.736 235.744597 
L 166.5216 235.677019 
L 168.3072 234.516667 
L 170.0928 233.976541 
L 171.8784 233.867921 
L 173.664 232.843095 
L 175.4496 231.974629 
L 177.2352 231.643064 
L 179.0208 230.81998 
L 180.8064 230.623695 
L 182.592 231.113354 
L 184.3776 229.652932 
L 186.1632 229.365634 
L 187.9488 229.706374 
L 189.7344 229.048824 
L 191.52 229.39812 
L 193.3056 228.924209 
L 196.8768 227.17376 
L 200.448 227.399308 
L 202.2336 227.268369 
L 204.0192 227.522436 
L 205.8048 226.418378 
L 209.376 226.570025 
L 211.1616 227.015417 
L 212.9472 225.400496 
L 216.5184 227.038853 
L 218.304 226.363324 
L 220.0896 225.986128 
L 221.8752 225.918179 
L 225.4464 226.544358 
L 227.232 226.82248 
L 229.0176 226.464008 
L 230.8032 226.376343 
L 232.5888 226.678025 
L 234.3744 226.066726 
L 241.5168 226.415154 
L 243.3024 226.739775 
L 245.088 227.916991 
L 246.8736 226.909773 
L 248.6592 227.664659 
L 250.4448 226.778338 
L 252.2304 226.256687 
L 254.016 226.620615 
L 255.8016 226.810452 
L 257.5872 227.696774 
L 261.1584 228.087485 
L 262.944 228.76971 
L 264.7296 228.668901 
L 266.5152 228.718128 
L 268.3008 229.23519 
L 270.0864 230.540122 
L 271.872 230.450473 
L 273.6576 231.349938 
L 275.4432 230.985019 
L 279.0144 232.29367 
L 280.8 233.368094 
L 282.5856 233.651424 
L 284.3712 233.546648 
L 286.1568 233.975177 
L 287.9424 234.674389 
L 289.728 236.228305 
L 291.5136 236.377596 
L 293.2992 237.772176 
L 295.0848 237.761637 
L 296.8704 238.417946 
L 300.4416 238.550622 
L 302.2272 240.411178 
L 304.0128 241.735825 
L 305.7984 242.19461 
L 307.584 242.210481 
L 309.3696 242.570193 
L 311.1552 244.25046 
L 314.7264 244.889038 
L 316.512 245.701459 
L 318.2976 246.19397 
L 320.0832 246.907814 
L 321.8688 247.879321 
L 329.0112 250.721305 
L 330.7968 250.72304 
L 332.5824 251.487971 
L 334.368 251.716619 
L 336.1536 252.602073 
L 339.7248 252.43753 
L 341.5104 253.569612 
L 343.296 255.190857 
L 345.0816 255.275174 
L 346.8672 255.054585 
L 348.6528 255.905196 
L 352.224 256.178607 
L 355.7952 259.013523 
L 357.5808 259.185877 
L 359.3664 259.194433 
L 361.152 260.324654 
L 362.9376 260.613565 
L 364.7232 260.425959 
L 366.5088 261.816572 
L 368.2944 262.049684 
L 370.08 262.45887 
L 371.8656 263.839687 
L 373.6512 263.655429 
L 375.4368 264.046636 
L 379.008 265.546489 
L 380.7936 265.393974 
L 382.5792 266.446946 
L 384.3648 267.290242 
L 386.1504 267.362655 
L 387.936 268.155112 
L 389.7216 269.145715 
L 395.0784 269.80004 
L 396.864 270.393608 
L 396.864 270.393608 
" style="fill:none;stroke:#ff7f0e;stroke-linecap:square;stroke-width:1.5;"/>
   </g>
   <g id="line2d_17">
    <path clip-path="url(#p0be2596093)" d="M 75.456 270.938942 
L 77.2416 267.247587 
L 79.0272 266.084755 
L 80.8128 264.599533 
L 82.5984 263.460384 
L 84.384 261.256607 
L 86.1696 260.46043 
L 87.9552 259.209808 
L 91.5264 255.697503 
L 93.312 253.514186 
L 95.0976 251.640609 
L 96.8832 250.866752 
L 98.6688 249.590711 
L 100.4544 249.076128 
L 102.24 246.743644 
L 104.0256 245.147322 
L 105.8112 243.249938 
L 107.5968 241.979229 
L 109.3824 239.977813 
L 111.168 238.184214 
L 112.9536 237.934735 
L 114.7392 235.6578 
L 116.5248 234.120252 
L 118.3104 233.215083 
L 120.096 231.718082 
L 121.8816 229.685791 
L 125.4528 226.533198 
L 127.2384 225.306756 
L 129.024 223.933006 
L 130.8096 222.754178 
L 132.5952 220.926852 
L 134.3808 220.198129 
L 136.1664 218.437637 
L 137.952 217.434759 
L 143.3088 212.818024 
L 145.0944 211.875656 
L 146.88 210.205432 
L 148.6656 208.259194 
L 150.4512 207.165428 
L 152.2368 205.723605 
L 154.0224 203.459317 
L 155.808 203.034384 
L 157.5936 201.431862 
L 159.3792 200.047821 
L 161.1648 199.490336 
L 162.9504 197.652843 
L 164.736 196.685676 
L 166.5216 195.854408 
L 168.3072 194.279413 
L 170.0928 193.494396 
L 171.8784 193.447401 
L 173.664 190.584091 
L 175.4496 190.298032 
L 177.2352 190.250666 
L 179.0208 189.205629 
L 180.8064 188.551428 
L 182.592 187.138496 
L 184.3776 185.368704 
L 187.9488 184.374878 
L 189.7344 184.089811 
L 191.52 184.826594 
L 193.3056 183.959864 
L 195.0912 183.653966 
L 196.8768 182.865229 
L 198.6624 183.470824 
L 200.448 183.36518 
L 202.2336 182.202595 
L 204.0192 182.552883 
L 205.8048 180.946518 
L 209.376 181.242744 
L 211.1616 181.846851 
L 212.9472 181.482676 
L 214.7328 181.818332 
L 216.5184 182.523124 
L 218.304 182.033093 
L 220.0896 181.248572 
L 221.8752 181.36674 
L 225.4464 182.253558 
L 227.232 182.097447 
L 229.0176 181.282051 
L 232.5888 181.396871 
L 234.3744 180.4116 
L 236.16 181.427126 
L 237.9456 181.080929 
L 239.7312 181.640275 
L 241.5168 181.578153 
L 245.088 182.534408 
L 246.8736 181.910461 
L 248.6592 181.850819 
L 250.4448 182.745325 
L 255.8016 183.935809 
L 257.5872 183.987267 
L 259.3728 183.914853 
L 261.1584 184.044925 
L 264.7296 185.71366 
L 266.5152 187.067322 
L 268.3008 186.836194 
L 270.0864 187.047855 
L 271.872 188.713118 
L 273.6576 188.937675 
L 275.4432 189.993499 
L 277.2288 189.6106 
L 279.0144 191.667938 
L 280.8 192.01463 
L 282.5856 192.633245 
L 284.3712 194.280901 
L 286.1568 193.525023 
L 287.9424 195.273859 
L 289.728 196.049577 
L 293.2992 198.194828 
L 295.0848 198.955543 
L 296.8704 200.008515 
L 298.656 200.683548 
L 300.4416 201.657535 
L 302.2272 203.345737 
L 304.0128 204.57962 
L 307.584 206.665105 
L 309.3696 208.243819 
L 311.1552 208.634902 
L 312.9408 209.357673 
L 316.512 212.244171 
L 318.2976 213.478673 
L 320.0832 213.51302 
L 321.8688 214.52929 
L 323.6544 215.841785 
L 325.44 216.221212 
L 327.2256 216.899221 
L 329.0112 218.703856 
L 330.7968 219.560543 
L 332.5824 220.214868 
L 334.368 220.466332 
L 336.1536 221.693518 
L 337.9392 223.133605 
L 339.7248 224.373687 
L 341.5104 225.049836 
L 343.296 226.274171 
L 345.0816 225.518788 
L 346.8672 228.00974 
L 348.6528 227.89058 
L 350.4384 227.355166 
L 352.224 229.07908 
L 354.0096 229.707986 
L 355.7952 231.162085 
L 357.5808 232.050143 
L 359.3664 232.225596 
L 361.152 233.782984 
L 362.9376 234.459257 
L 364.7232 234.626155 
L 366.5088 236.182302 
L 368.2944 237.479298 
L 370.08 237.740309 
L 373.6512 239.695847 
L 375.4368 239.955494 
L 377.2224 240.962712 
L 379.008 242.252888 
L 380.7936 242.851664 
L 382.5792 243.803827 
L 384.3648 244.415499 
L 386.1504 245.767177 
L 391.5072 247.958926 
L 393.2928 249.960838 
L 395.0784 250.337414 
L 396.864 251.354179 
L 396.864 251.354179 
" style="fill:none;stroke:#2ca02c;stroke-linecap:square;stroke-width:1.5;"/>
   </g>
   <g id="line2d_18">
    <path clip-path="url(#p0be2596093)" d="M 75.456 256.982224 
L 77.2416 253.509846 
L 79.0272 252.096542 
L 80.8128 250.377092 
L 82.5984 248.996027 
L 84.384 246.326026 
L 86.1696 244.190074 
L 87.9552 242.837032 
L 89.7408 240.318926 
L 91.5264 238.041619 
L 93.312 236.512255 
L 95.0976 234.576309 
L 96.8832 232.042455 
L 100.4544 227.632173 
L 104.0256 223.879192 
L 107.5968 219.239642 
L 111.168 216.007195 
L 112.9536 213.635156 
L 116.5248 209.44819 
L 118.3104 207.785407 
L 120.096 205.243989 
L 121.8816 203.869124 
L 123.6672 201.674522 
L 125.4528 200.038398 
L 127.2384 197.391211 
L 130.8096 193.8489 
L 132.5952 192.654821 
L 134.3808 191.047215 
L 136.1664 188.324144 
L 137.952 186.848594 
L 139.7376 185.711676 
L 141.5232 183.493763 
L 143.3088 182.256533 
L 145.0944 179.996958 
L 146.88 178.426179 
L 155.808 168.200247 
L 157.5936 166.501008 
L 159.3792 165.312385 
L 161.1648 162.749888 
L 162.9504 161.666661 
L 164.736 159.314337 
L 166.5216 157.334744 
L 168.3072 155.930864 
L 170.0928 154.80957 
L 171.8784 153.257142 
L 173.664 152.072735 
L 175.4496 149.861642 
L 177.2352 149.879993 
L 179.0208 150.113229 
L 180.8064 149.281713 
L 182.592 146.321934 
L 184.3776 146.226953 
L 186.1632 145.568535 
L 187.9488 145.12401 
L 189.7344 143.789692 
L 191.52 143.986721 
L 193.3056 142.49344 
L 195.0912 141.967078 
L 196.8768 142.455497 
L 198.6624 141.811587 
L 200.448 142.542294 
L 202.2336 141.712018 
L 205.8048 139.722382 
L 207.5904 140.056799 
L 209.376 139.530313 
L 211.1616 140.139752 
L 212.9472 139.745445 
L 216.5184 139.591442 
L 218.304 139.545192 
L 220.0896 141.054097 
L 221.8752 140.092757 
L 223.6608 139.338739 
L 225.4464 138.867803 
L 227.232 139.611282 
L 229.0176 139.646621 
L 230.8032 138.860487 
L 232.5888 139.323736 
L 234.3744 139.510597 
L 236.16 139.446492 
L 237.9456 138.769598 
L 239.7312 138.900042 
L 241.5168 139.59851 
L 243.3024 139.733046 
L 245.088 140.678142 
L 246.8736 140.485204 
L 248.6592 140.918569 
L 250.4448 141.59943 
L 252.2304 140.088294 
L 254.016 141.008218 
L 255.8016 142.372172 
L 257.5872 143.504998 
L 259.3728 143.126191 
L 261.1584 142.6002 
L 262.944 144.627035 
L 264.7296 144.465841 
L 268.3008 146.698757 
L 270.0864 148.761055 
L 271.872 148.761675 
L 273.6576 149.157222 
L 275.4432 150.390484 
L 277.2288 151.282014 
L 279.0144 151.202532 
L 280.8 153.852322 
L 282.5856 155.296501 
L 284.3712 156.086974 
L 286.1568 157.599599 
L 287.9424 158.545563 
L 289.728 159.775477 
L 291.5136 161.628966 
L 293.2992 161.522454 
L 295.0848 164.277144 
L 298.656 166.334234 
L 300.4416 168.526356 
L 302.2272 169.496995 
L 304.0128 171.65539 
L 305.7984 171.933388 
L 309.3696 175.257467 
L 311.1552 176.743929 
L 312.9408 177.690513 
L 314.7264 178.491153 
L 316.512 181.281679 
L 318.2976 182.818854 
L 320.0832 183.289914 
L 321.8688 184.812211 
L 323.6544 184.832546 
L 325.44 187.107001 
L 327.2256 188.470954 
L 329.0112 189.232289 
L 332.5824 191.739855 
L 334.368 192.412285 
L 336.1536 194.251142 
L 337.9392 195.66023 
L 339.7248 196.873777 
L 341.5104 197.503552 
L 343.296 198.83415 
L 345.0816 199.259952 
L 346.8672 200.264938 
L 348.6528 202.739894 
L 350.4384 202.992101 
L 352.224 204.194116 
L 354.0096 204.817071 
L 355.7952 206.472787 
L 357.5808 206.853454 
L 359.3664 208.111763 
L 361.152 208.917116 
L 362.9376 210.088876 
L 364.7232 212.513118 
L 366.5088 212.863282 
L 368.2944 214.222276 
L 370.08 216.052578 
L 371.8656 215.994672 
L 373.6512 218.544149 
L 375.4368 218.64099 
L 377.2224 219.731037 
L 379.008 220.675389 
L 380.7936 222.495399 
L 382.5792 223.245326 
L 384.3648 224.158803 
L 387.936 227.463538 
L 389.7216 228.952356 
L 391.5072 229.488141 
L 393.2928 230.63783 
L 395.0784 231.611321 
L 396.864 232.727284 
L 396.864 232.727284 
" style="fill:none;stroke:#d62728;stroke-linecap:square;stroke-width:1.5;"/>
   </g>
   <g id="line2d_19">
    <path clip-path="url(#p0be2596093)" d="M 75.456 243.36637 
L 77.2416 241.643449 
L 79.0272 239.570611 
L 80.8128 236.909414 
L 82.5984 235.001986 
L 84.384 231.891056 
L 86.1696 229.120742 
L 87.9552 228.058098 
L 89.7408 224.660614 
L 91.5264 221.98466 
L 93.312 219.645108 
L 95.0976 217.667375 
L 96.8832 214.594759 
L 98.6688 211.86524 
L 100.4544 209.857872 
L 102.24 206.808072 
L 104.0256 204.383334 
L 105.8112 201.155228 
L 107.5968 198.415789 
L 109.3824 197.010421 
L 111.168 193.715976 
L 116.5248 185.846212 
L 118.3104 184.047529 
L 120.096 181.339213 
L 121.8816 179.260795 
L 123.6672 177.675261 
L 125.4528 174.924415 
L 127.2384 172.491369 
L 129.024 171.538089 
L 130.8096 168.709002 
L 132.5952 166.259961 
L 136.1664 160.794722 
L 137.952 157.611874 
L 139.7376 155.385034 
L 141.5232 153.808056 
L 143.3088 149.964558 
L 145.0944 149.124363 
L 148.6656 144.390824 
L 150.4512 142.49468 
L 152.2368 138.350617 
L 154.0224 138.323958 
L 155.808 136.170275 
L 159.3792 130.204961 
L 161.1648 128.298154 
L 162.9504 126.685589 
L 166.5216 122.603151 
L 168.3072 119.373557 
L 170.0928 118.803548 
L 171.8784 116.466352 
L 173.664 114.867922 
L 175.4496 113.780603 
L 177.2352 111.334662 
L 179.0208 110.39651 
L 180.8064 110.217088 
L 182.592 108.545873 
L 184.3776 107.796566 
L 186.1632 105.828009 
L 187.9488 105.381748 
L 189.7344 103.287459 
L 191.52 103.194587 
L 195.0912 100.192028 
L 196.8768 100.646597 
L 198.6624 101.662743 
L 200.448 101.68345 
L 202.2336 100.705371 
L 204.0192 100.674248 
L 205.8048 100.329416 
L 207.5904 99.765359 
L 209.376 100.03691 
L 211.1616 99.675586 
L 212.9472 100.579639 
L 214.7328 98.809352 
L 216.5184 99.19101 
L 218.304 97.834372 
L 220.0896 98.418393 
L 221.8752 97.641931 
L 223.6608 98.342755 
L 225.4464 98.878417 
L 227.232 99.84422 
L 229.0176 99.14848 
L 230.8032 99.766847 
L 232.5888 98.824603 
L 234.3744 99.068255 
L 236.16 98.567684 
L 237.9456 99.217918 
L 239.7312 100.594023 
L 241.5168 99.537827 
L 243.3024 99.710305 
L 245.088 100.711447 
L 246.8736 100.467051 
L 248.6592 101.641291 
L 250.4448 101.22107 
L 252.2304 99.566594 
L 254.016 101.165272 
L 255.8016 103.082371 
L 257.5872 103.062531 
L 259.3728 103.593977 
L 261.1584 104.811616 
L 264.7296 105.575058 
L 266.5152 107.607101 
L 268.3008 107.912626 
L 270.0864 109.331138 
L 271.872 109.580122 
L 273.6576 112.22768 
L 275.4432 112.667121 
L 279.0144 115.295459 
L 280.8 117.036485 
L 282.5856 118.379607 
L 284.3712 120.209785 
L 286.1568 121.802759 
L 287.9424 122.649774 
L 289.728 125.320395 
L 291.5136 124.551497 
L 293.2992 127.194344 
L 296.8704 129.960689 
L 298.656 132.783206 
L 300.4416 135.251094 
L 302.2272 136.250748 
L 304.0128 138.459485 
L 305.7984 139.552508 
L 307.584 140.889431 
L 309.3696 142.563746 
L 311.1552 144.789718 
L 312.9408 146.465521 
L 314.7264 148.337237 
L 316.512 150.832777 
L 318.2976 151.828091 
L 321.8688 155.376974 
L 323.6544 156.671614 
L 325.44 159.108752 
L 327.2256 159.104164 
L 329.0112 161.799956 
L 330.7968 162.792915 
L 334.368 166.595121 
L 336.1536 166.946897 
L 337.9392 168.370865 
L 339.7248 169.382299 
L 341.5104 170.593366 
L 343.296 172.466818 
L 346.8672 174.510021 
L 348.6528 177.506379 
L 350.4384 178.330083 
L 352.224 179.478408 
L 355.7952 181.123088 
L 357.5808 184.282997 
L 359.3664 184.805391 
L 361.152 186.340583 
L 362.9376 188.06524 
L 364.7232 189.255104 
L 366.5088 191.036303 
L 368.2944 191.615612 
L 370.08 194.606266 
L 371.8656 194.521577 
L 373.6512 195.459729 
L 375.4368 196.7814 
L 377.2224 199.396471 
L 380.7936 201.457902 
L 382.5792 203.90595 
L 384.3648 206.060625 
L 386.1504 206.601247 
L 387.936 208.213936 
L 389.7216 209.09319 
L 391.5072 210.284046 
L 395.0784 213.309667 
L 396.864 213.724433 
L 396.864 213.724433 
" style="fill:none;stroke:#9467bd;stroke-linecap:square;stroke-width:1.5;"/>
   </g>
   <g id="line2d_20">
    <path clip-path="url(#p0be2596093)" d="M 75.456 231.77388 
L 77.2416 227.671727 
L 79.0272 225.318163 
L 80.8128 222.04393 
L 87.9552 210.027126 
L 89.7408 207.851868 
L 91.5264 205.049935 
L 93.312 200.750754 
L 95.0976 198.564956 
L 96.8832 195.019792 
L 98.6688 191.166623 
L 100.4544 188.413793 
L 102.24 184.854121 
L 104.0256 182.533912 
L 105.8112 178.778204 
L 107.5968 176.276589 
L 109.3824 173.522022 
L 111.168 169.580196 
L 112.9536 166.331382 
L 114.7392 164.151412 
L 116.5248 159.99123 
L 120.096 154.772867 
L 121.8816 152.14862 
L 123.6672 148.879223 
L 125.4528 145.869969 
L 127.2384 144.38388 
L 129.024 140.727368 
L 130.8096 138.981631 
L 132.5952 133.975053 
L 134.3808 131.82199 
L 136.1664 128.822904 
L 137.952 126.413542 
L 139.7376 123.783963 
L 141.5232 121.818754 
L 145.0944 113.863432 
L 146.88 111.693258 
L 148.6656 111.169624 
L 150.4512 106.189085 
L 152.2368 103.070963 
L 154.0224 100.386826 
L 155.808 98.497378 
L 157.5936 94.442716 
L 159.3792 92.606338 
L 161.1648 90.308448 
L 162.9504 86.952254 
L 164.736 85.910814 
L 166.5216 82.237686 
L 168.3072 79.285967 
L 170.0928 77.172954 
L 171.8784 76.087743 
L 173.664 74.258681 
L 175.4496 71.309689 
L 179.0208 68.582278 
L 180.8064 67.827392 
L 182.592 66.437399 
L 184.3776 64.475661 
L 186.1632 63.171102 
L 187.9488 62.10697 
L 189.7344 61.254003 
L 191.52 60.158376 
L 193.3056 59.310865 
L 195.0912 58.914078 
L 196.8768 58.780535 
L 198.6624 56.178979 
L 200.448 56.397956 
L 202.2336 56.333478 
L 204.0192 55.980958 
L 205.8048 57.244103 
L 207.5904 57.729175 
L 209.376 56.365469 
L 211.1616 54.241917 
L 212.9472 54.131933 
L 214.7328 53.885181 
L 216.5184 54.593941 
L 218.304 55.896765 
L 220.0896 55.012551 
L 221.8752 53.850462 
L 223.6608 53.568 
L 225.4464 54.763691 
L 227.232 53.883817 
L 230.8032 55.205736 
L 232.5888 54.533927 
L 234.3744 55.745242 
L 236.16 55.414173 
L 237.9456 55.507666 
L 239.7312 55.98381 
L 243.3024 54.591585 
L 245.088 55.34238 
L 246.8736 56.433666 
L 248.6592 55.610335 
L 250.4448 55.485595 
L 252.2304 56.824501 
L 254.016 59.096228 
L 255.8016 57.73339 
L 257.5872 58.352502 
L 259.3728 60.106298 
L 261.1584 60.027313 
L 262.944 61.475459 
L 266.5152 62.933278 
L 270.0864 66.257729 
L 271.872 67.221548 
L 273.6576 70.446927 
L 275.4432 69.909777 
L 277.2288 72.04672 
L 279.0144 73.760714 
L 280.8 74.95653 
L 282.5856 77.354112 
L 284.3712 80.158401 
L 286.1568 80.1925 
L 287.9424 82.438187 
L 289.728 84.99653 
L 291.5136 87.08152 
L 293.2992 87.458157 
L 295.0848 89.277361 
L 298.656 94.859403 
L 300.4416 97.166655 
L 302.2272 97.474475 
L 304.0128 100.890807 
L 305.7984 102.652167 
L 307.584 103.684246 
L 309.3696 108.832923 
L 311.1552 109.130141 
L 312.9408 112.28292 
L 314.7264 113.437569 
L 316.512 114.960113 
L 318.2976 118.669013 
L 320.0832 119.723039 
L 321.8688 121.453338 
L 323.6544 124.616719 
L 325.44 126.386449 
L 327.2256 128.345892 
L 329.0112 129.868437 
L 330.7968 131.030711 
L 332.5824 131.871031 
L 334.368 135.305404 
L 336.1536 137.329015 
L 337.9392 138.013286 
L 339.7248 139.99914 
L 341.5104 140.323141 
L 343.296 143.688139 
L 345.0816 145.509017 
L 346.8672 147.596982 
L 348.6528 149.074516 
L 350.4384 149.923205 
L 352.224 151.578177 
L 354.0096 153.696087 
L 355.7952 155.358871 
L 357.5808 154.930899 
L 359.3664 158.899819 
L 361.152 160.520754 
L 362.9376 162.561662 
L 364.7232 163.362923 
L 366.5088 166.061691 
L 368.2944 168.287292 
L 370.08 169.416645 
L 373.6512 172.045294 
L 375.4368 174.59471 
L 377.2224 176.061456 
L 379.008 176.468224 
L 380.7936 179.561299 
L 382.5792 180.842609 
L 386.1504 184.631301 
L 387.936 185.782044 
L 389.7216 188.171319 
L 391.5072 189.404829 
L 395.0784 193.12619 
L 396.864 195.981565 
L 396.864 195.981565 
" style="fill:none;stroke:#8c564b;stroke-linecap:square;stroke-width:1.5;"/>
   </g>
   <g id="patch_3">
    <path d="M 57.6 307.584 
L 57.6 41.472 
" style="fill:none;stroke:#000000;stroke-linecap:square;stroke-linejoin:miter;stroke-width:0.8;"/>
   </g>
   <g id="patch_4">
    <path d="M 414.72 307.584 
L 414.72 41.472 
" style="fill:none;stroke:#000000;stroke-linecap:square;stroke-linejoin:miter;stroke-width:0.8;"/>
   </g>
   <g id="patch_5">
    <path d="M 57.6 307.584 
L 414.72 307.584 
" style="fill:none;stroke:#000000;stroke-linecap:square;stroke-linejoin:miter;stroke-width:0.8;"/>
   </g>
   <g id="patch_6">
    <path d="M 57.6 41.472 
L 414.72 41.472 
" style="fill:none;stroke:#000000;stroke-linecap:square;stroke-linejoin:miter;stroke-width:0.8;"/>
   </g>
   <g id="legend_1">
    <g id="patch_7">
     <path d="M 353.454375 137.54075 
L 407.72 137.54075 
Q 409.72 137.54075 409.72 135.54075 
L 409.72 48.472 
Q 409.72 46.472 407.72 46.472 
L 353.454375 46.472 
Q 351.454375 46.472 351.454375 48.472 
L 351.454375 135.54075 
Q 351.454375 137.54075 353.454375 137.54075 
z
" style="fill:#ffffff;opacity:0.8;stroke:#cccccc;stroke-linejoin:miter;"/>
    </g>
    <g id="line2d_21">
     <path d="M 355.454375 54.570438 
L 375.454375 54.570438 
" style="fill:none;stroke:#1f77b4;stroke-linecap:square;stroke-width:1.5;"/>
    </g>
    <g id="line2d_22"/>
    <g id="text_17">
     <!-- 0.05 -->
     <g transform="translate(383.454375 58.070438)scale(0.1 -0.1)">
      <use xlink:href="#DejaVuSans-48"/>
      <use x="63.623047" xlink:href="#DejaVuSans-46"/>
      <use x="95.410156" xlink:href="#DejaVuSans-48"/>
      <use x="159.033203" xlink:href="#DejaVuSans-53"/>
     </g>
    </g>
    <g id="line2d_23">
     <path d="M 355.454375 69.248563 
L 375.454375 69.248563 
" style="fill:none;stroke:#ff7f0e;stroke-linecap:square;stroke-width:1.5;"/>
    </g>
    <g id="line2d_24"/>
    <g id="text_18">
     <!-- 0.1 -->
     <g transform="translate(383.454375 72.748563)scale(0.1 -0.1)">
      <use xlink:href="#DejaVuSans-48"/>
      <use x="63.623047" xlink:href="#DejaVuSans-46"/>
      <use x="95.410156" xlink:href="#DejaVuSans-49"/>
     </g>
    </g>
    <g id="line2d_25">
     <path d="M 355.454375 83.926688 
L 375.454375 83.926688 
" style="fill:none;stroke:#2ca02c;stroke-linecap:square;stroke-width:1.5;"/>
    </g>
    <g id="line2d_26"/>
    <g id="text_19">
     <!-- 0.15 -->
     <g transform="translate(383.454375 87.426688)scale(0.1 -0.1)">
      <use xlink:href="#DejaVuSans-48"/>
      <use x="63.623047" xlink:href="#DejaVuSans-46"/>
      <use x="95.410156" xlink:href="#DejaVuSans-49"/>
      <use x="159.033203" xlink:href="#DejaVuSans-53"/>
     </g>
    </g>
    <g id="line2d_27">
     <path d="M 355.454375 98.604813 
L 375.454375 98.604813 
" style="fill:none;stroke:#d62728;stroke-linecap:square;stroke-width:1.5;"/>
    </g>
    <g id="line2d_28"/>
    <g id="text_20">
     <!-- 0.2 -->
     <g transform="translate(383.454375 102.104813)scale(0.1 -0.1)">
      <use xlink:href="#DejaVuSans-48"/>
      <use x="63.623047" xlink:href="#DejaVuSans-46"/>
      <use x="95.410156" xlink:href="#DejaVuSans-50"/>
     </g>
    </g>
    <g id="line2d_29">
     <path d="M 355.454375 113.282938 
L 375.454375 113.282938 
" style="fill:none;stroke:#9467bd;stroke-linecap:square;stroke-width:1.5;"/>
    </g>
    <g id="line2d_30"/>
    <g id="text_21">
     <!-- 0.25 -->
     <g transform="translate(383.454375 116.782938)scale(0.1 -0.1)">
      <use xlink:href="#DejaVuSans-48"/>
      <use x="63.623047" xlink:href="#DejaVuSans-46"/>
      <use x="95.410156" xlink:href="#DejaVuSans-50"/>
      <use x="159.033203" xlink:href="#DejaVuSans-53"/>
     </g>
    </g>
    <g id="line2d_31">
     <path d="M 355.454375 127.961063 
L 375.454375 127.961063 
" style="fill:none;stroke:#8c564b;stroke-linecap:square;stroke-width:1.5;"/>
    </g>
    <g id="line2d_32"/>
    <g id="text_22">
     <!-- 0.3 -->
     <g transform="translate(383.454375 131.461063)scale(0.1 -0.1)">
      <use xlink:href="#DejaVuSans-48"/>
      <use x="63.623047" xlink:href="#DejaVuSans-46"/>
      <use x="95.410156" xlink:href="#DejaVuSans-51"/>
     </g>
    </g>
   </g>
  </g>
 </g>
 <defs>
  <clipPath id="p0be2596093">
   <rect height="266.112" width="357.12" x="57.6" y="41.472"/>
  </clipPath>
 </defs>
</svg>
